<svg width="70" height="71" fill="none" xmlns="http://www.w3.org/2000/svg"><rect x="5" y="5.19" width="59.658" height="60" rx="29.829" fill="#FFCC40"/><rect x="5" y="5.19" width="59.658" height="60" rx="29.829" stroke="#fff" stroke-width="10"/><g clip-path="url(#clip0_178_1705)"><path d="M23.56 50.19h-.022A1.558 1.558 0 0122 48.607c.098-7.132 6.548-10.845 12.9-10.845h.113c6.09.045 12.645 3.443 12.645 10.815 0 .863-.698 1.56-1.56 1.56-.863 0-21.683.053-22.538.053zm11.363-15.278c-4.043 0-7.335-3.3-7.335-7.365s3.292-7.357 7.335-7.357c4.042 0 7.335 3.3 7.335 7.365s-3.293 7.365-7.335 7.365v-.008z" fill="#fff"/></g><defs><clipPath id="clip0_178_1705"><path fill="#fff" transform="translate(20 20.19)" d="M0 0h29.658v30H0z"/></clipPath></defs></svg>