<svg width="70" height="71" fill="none" xmlns="http://www.w3.org/2000/svg"><rect x="5" y="5.19" width="59.658" height="60" rx="29.829" fill="#FFCC40"/><rect x="5" y="5.19" width="59.658" height="60" rx="29.829" stroke="#fff" stroke-width="10"/><g clip-path="url(#clip0_178_1724)" fill="#fff"><path d="M32.358 32.8h4.212a5.062 5.062 0 011.745-2.994h.014a4.632 4.632 0 002.971-1.184c1.323-1.186 2.049-3.157 2.147-5.867a1.314 1.314 0 00-.343-.933 1.285 1.285 0 00-.893-.417c-.774-.04-1.308.532-1.335 1.252-.079 2.048-.564 3.472-1.411 4.121a1.972 1.972 0 01-.568.306l-.02.005c-.557-.538-1.328-.8-1.848-.8h-6.365c-1.167 0-2.096 1.184-2.116 2.485 1.944.48 3.453 2.072 3.81 4.025z"/><path d="M33.845 26.244c1.687 0 3.054-1.355 3.054-3.027 0-1.672-1.367-3.027-3.054-3.027-1.687 0-3.055 1.355-3.055 3.027 0 1.672 1.368 3.027 3.055 3.027zm-.395 14.361c0-2.349-1-3.341-2.388-3.341h-3.219c1.737-.257 3.068-1.738 3.068-3.532 0-1.971-1.611-3.57-3.604-3.57-1.988 0-3.6 1.599-3.6 3.57 0 1.794 1.33 3.274 3.068 3.532h-3.22c-1.39 0-2.518 1.505-2.518 3.06v4.756H33.45v-4.475zm4.442-6.873c0 1.794 1.332 3.274 3.067 3.532h-3.222c-1.39 0-2.452 1.505-2.452 3.06v4.756h12.318v-4.472c0-2.322-.964-3.298-2.324-3.322-.02 0-.018-.02-.035-.02h-3.22c1.737-.257 3.07-1.738 3.07-3.533 0-1.971-1.614-3.57-3.603-3.57-1.988-.002-3.599 1.598-3.599 3.569zM20.027 47.12h29.604v3.069H20.027v-3.07z"/></g><defs><clipPath id="clip0_178_1724"><path fill="#fff" transform="translate(20 20.19)" d="M0 0h29.658v30H0z"/></clipPath></defs></svg>