<svg width="70" height="71" fill="none" xmlns="http://www.w3.org/2000/svg"><rect x="5" y="5.19" width="59.658" height="60" rx="29.829" fill="#FFCC40"/><rect x="5" y="5.19" width="59.658" height="60" rx="29.829" stroke="#fff" stroke-width="10"/><g clip-path="url(#clip0_178_1712)"><path d="M34.829 26.573c-4.698 0-8.519 3.865-8.519 8.617 0 4.752 3.822 8.617 8.519 8.617s8.519-3.866 8.519-8.617c0-4.752-3.822-8.617-8.52-8.617zm0-2.052a.899.899 0 00.893-.904v-2.523c0-.5-.4-.904-.893-.904a.899.899 0 00-.894.904v2.523c0 .499.4.904.894.904zm0 21.338a.899.899 0 00-.894.904v2.523c0 .5.4.904.894.904a.899.899 0 00.893-.904v-2.523c0-.5-.4-.904-.893-.904zm8.721-18.214l1.764-1.784a.91.91 0 000-1.278.886.886 0 00-1.263 0l-1.764 1.785a.91.91 0 000 1.278.886.886 0 001.263 0zm-17.443 15.09l-1.764 1.784a.91.91 0 000 1.278.886.886 0 001.264 0l1.764-1.785a.91.91 0 000-1.278.886.886 0 00-1.264 0zm22.657-8.449H46.27a.899.899 0 00-.894.904c0 .499.4.904.894.904h2.494a.899.899 0 00.894-.904c0-.499-.4-.904-.894-.904zm-25.376 0h-2.495a.899.899 0 00-.893.904c0 .499.4.904.893.904h2.495a.899.899 0 00.893-.904c0-.499-.4-.904-.893-.904zm20.162 8.448a.886.886 0 00-1.263 0 .91.91 0 000 1.278l1.764 1.785a.886.886 0 001.263 0 .91.91 0 000-1.278l-1.764-1.785zM26.107 27.645a.886.886 0 001.264 0 .91.91 0 000-1.277l-1.764-1.785a.886.886 0 00-1.264 0 .91.91 0 000 1.278l1.764 1.784z" fill="#fff"/></g><defs><clipPath id="clip0_178_1712"><path fill="#fff" transform="translate(20 20.19)" d="M0 0h29.658v30H0z"/></clipPath></defs></svg>