<svg width="70" height="71" fill="none" xmlns="http://www.w3.org/2000/svg"><rect x="5" y="5.19" width="59.658" height="60" rx="29.829" fill="#FFCC40"/><rect x="5" y="5.19" width="59.658" height="60" rx="29.829" stroke="#fff" stroke-width="10"/><g clip-path="url(#clip0_178_1728)" fill="#fff"><path d="M41.2 30.444c.48 0 .87-.394.87-.88a.874.874 0 00-.87-.878.874.874 0 00-.868.879c0 .485.389.879.869.879zm2.028-7.617c.48 0 .87-.394.87-.88a.874.874 0 00-.87-.878.874.874 0 00-.869.879c0 .485.39.879.87.879zm-14.771 7.617c.48 0 .869-.394.869-.88a.874.874 0 00-.87-.878.874.874 0 00-.868.879c0 .485.389.879.869.879zm-2.027-7.617c.48 0 .868-.394.868-.88a.874.874 0 00-.869-.878.874.874 0 00-.868.879c0 .485.389.879.868.879z"/><path d="M47.95 22.65a2.946 2.946 0 00-1.913.705 3.009 3.009 0 00-1.014 1.787l-1.06 6.157c.726.15 1.418.508 1.98 1.076a3.992 3.992 0 010 5.593l-4.035 4.082a.862.862 0 01-1.229 0 .886.886 0 010-1.243l4.035-4.082a2.218 2.218 0 000-3.107 2.153 2.153 0 00-3.072 0l-4.275 4.324a5.563 5.563 0 00-1.611 3.936v7.433c0 .486.389.879.868.879h7.53c.48 0 .87-.393.87-.879V43.03l3.361-3.4a4.392 4.392 0 001.273-3.108V24.378c0-.953-.766-1.727-1.707-1.727zM32.29 37.943l-4.274-4.324a2.153 2.153 0 00-2.022-.588l-.001.001a2.153 2.153 0 00-1.05.587 2.218 2.218 0 000 3.107l4.035 4.082c.34.343.34.9 0 1.242a.862.862 0 01-1.228 0l-4.035-4.08a3.992 3.992 0 010-5.594 3.873 3.873 0 011.98-1.076l-1.06-6.157a3.009 3.009 0 00-1.014-1.787 2.947 2.947 0 00-1.914-.704c-.941 0-1.707.774-1.707 1.727V36.52c0 1.174.452 2.277 1.273 3.107l3.361 3.4v6.283c0 .486.389.879.869.879h7.53c.48 0 .869-.393.869-.879v-7.433a5.563 5.563 0 00-1.612-3.936zm6.119-4.849a.86.86 0 01-.404-.101l-3.176-1.689-3.176 1.689a.86.86 0 01-.915-.067.878.878 0 01-.346-.86L31 28.49l-2.57-2.534a.883.883 0 01.482-1.499l3.55-.522 1.589-3.254a.875.875 0 01.779-.49.861.861 0 01.779.49l1.588 3.254 3.55.522a.865.865 0 01.702.598.888.888 0 01-.22.901l-2.57 2.534.607 3.576a.89.89 0 01-.192.716.871.871 0 01-.664.312zm-3.58 2.623c.48 0 .869-.393.869-.879a.874.874 0 00-.87-.879.874.874 0 00-.868.88c0 .485.389.878.869.878z"/></g><defs><clipPath id="clip0_178_1728"><path fill="#fff" transform="translate(20 20.19)" d="M0 0h29.658v30H0z"/></clipPath></defs></svg>