<svg width="403" height="345" fill="none" xmlns="http://www.w3.org/2000/svg"><path d="M179.38 30.856c7.7-13.319 26.927-13.319 34.628 0L377.436 313.5c7.71 13.334-1.912 30.012-17.314 30.012H33.265c-15.401 0-25.023-16.678-17.314-30.012L179.38 30.856z" fill="#FFCC40"/><path d="M161.451 221.692c5.72-1.08 10.48-.64 14.28 1.32 3.8 1.96 5.7 5.06 5.7 9.3 0 2-.46 3.74-1.38 5.22-.88 1.48-2.06 2.62-3.54 3.42-1.48.8-3.04 1.38-4.68 1.74-1.64.4-3.34.6-5.1.6-1.36 0-2.76-.14-4.2-.42-1.44-.24-2.92-.62-4.44-1.14-1.48-.56-2.7-1.38-3.66-2.46-.96-1.12-1.44-2.4-1.44-3.84 0-1.6.52-2.92 1.56-3.96 1.04-1.08 2.4-1.62 4.08-1.62.96 0 1.9.14 2.82.42.92.24 1.44.48 1.56.72.12.2.18.42.18.66.04.2.04.54 0 1.02-.04.44-.06.8-.06 1.08 0 1.12.28 1.96.84 2.52.6.56 1.38.84 2.34.84s1.76-.4 2.4-1.2c.68-.84 1.02-1.82 1.02-2.94 0-1.12-.2-2.04-.6-2.76-.36-.72-1.08-1.36-2.16-1.92-1.08-.6-2.58-.92-4.5-.96-1.88-.08-4.32 0-7.32.24h-.36c-.16 0-.24-.1-.24-.3v-18.42c0-.16.1-.24.3-.24h25.02c.16 0 .24.06.24.18v8.82c0 .16-.08.24-.24.24h-18.42v3.84zm44.402 2.4v5.28c0 .12-.08.18-.24.18h-17.88l-.3-.24v-5.16c.04-.2.16-.3.36-.3h17.82c.16.04.24.12.24.24zm19.63-16.86c4.88 0 8.68 1.72 11.4 5.16 2.76 3.4 4.14 7.74 4.14 13.02 0 5.6-1.38 9.98-4.14 13.14-2.72 3.16-6.52 4.74-11.4 4.74-3.32 0-6.14-.7-8.46-2.1-2.32-1.4-3.54-3.14-3.66-5.22-.08-1.56.36-2.94 1.32-4.14 1-1.2 2.36-1.8 4.08-1.8.92-.04 1.82.08 2.7.36.88.24 1.4.46 1.56.66.08.16.12.36.12.6.04.2.04.5 0 .9s-.06.72-.06.96c0 2.4.88 3.6 2.64 3.6 2.32 0 3.48-2.96 3.48-8.88-3.52 1.2-6.56 1.46-9.12.78-2.56-.72-4.56-1.98-6-3.78-1.4-1.84-2.1-3.9-2.1-6.18 0-1.88.32-3.56.96-5.04.64-1.48 1.44-2.62 2.4-3.42.96-.84 2.08-1.52 3.36-2.04 1.28-.52 2.46-.86 3.54-1.02 1.08-.2 2.16-.3 3.24-.3zm3.66 15.54c.12-2.68-.1-4.76-.66-6.24-.56-1.52-1.58-2.26-3.06-2.22-1.2.04-2.04.64-2.52 1.8-.44 1.12-.62 2.18-.54 3.18.2 3.48 2.46 4.64 6.78 3.48zm-46.727 62.04c.146.053.14.306-.02.76-.267.746-.747 1.266-1.44 1.56-.214.093-.44.153-.68.18-.747.08-1.414-.007-2-.26-.574-.24-1.04-.567-1.4-.98-.36-.414-.674-.954-.94-1.62a14.878 14.878 0 01-.58-1.84 25.08 25.08 0 01-.32-1.96c-.294-.067-.54-.04-.74.08l.14 6.08a.131.131 0 01-.1.1h-4.3l-.08-.06v-.04c-.014-6.12-.014-9.74 0-10.86-.04-.44-.12-.807-.24-1.1-.107-.294-.227-.494-.36-.6a1.63 1.63 0 00-.36-.28 2.487 2.487 0 01-.26-.16c-.054-.054-.067-.127-.04-.22.12-.347.46-.674 1.02-.98.573-.32 1.146-.48 1.72-.48.853 0 1.56.266 2.12.8.56.533.84 1.333.84 2.4l-.1 3.2c.053-.027.16-.054.32-.08.16-.027.26-.047.3-.06-.027-1.627.34-3.034 1.1-4.22.76-1.187 1.846-1.867 3.26-2.04.906-.107 1.66.08 2.26.56.6.48.846 1.133.74 1.96-.067.546-.247.986-.54 1.32-.28.333-.607.546-.98.64-.36.08-.72.12-1.08.12-.347 0-.64-.04-.88-.12-.24-.08-.36-.147-.36-.2v-.38c0-.04-.007-.1-.02-.18 0-.08-.014-.14-.04-.18a3.245 3.245 0 00-.1-.14.265.265 0 00-.18-.1.642.642 0 00-.24-.04c-.387 0-.687.266-.9.8-.214.533-.314 1.2-.3 2 .6-.014 1.066.166 1.4.54.346.373.713.98 1.1 1.82.773 1.613 1.446 2.74 2.02 3.38.426.453.84.746 1.24.88zm14.173-12.18l.08.06v.04l-.02 14.08a.131.131 0 01-.1.1h-4.14l-.08-.06v-11.84h-2.22c-.014.253-.034.7-.06 1.34a50.159 50.159 0 01-.06 1.64 40.566 40.566 0 01-.1 1.76 19.765 19.765 0 01-.22 1.86c-.094.52-.207 1.093-.34 1.72-.134.626-.314 1.16-.54 1.6-.214.44-.46.853-.74 1.24-.28.386-.62.673-1.02.86-.4.2-.84.3-1.32.3-.72 0-1.334-.234-1.84-.7-.507-.48-.76-.9-.76-1.26 0-.067.1-.207.3-.42.213-.214.466-.574.76-1.08.306-.507.606-1.174.9-2 .306-.827.56-2.034.76-3.62.213-1.6.326-3.44.34-5.52v-.02a.119.119 0 01.08-.08c1.52-.414 3.24-.62 5.16-.62 1.933-.014 3.66.193 5.18.62zm14.957 14.18c.013.053-.007.086-.06.1h-4.52c-.067 0-.107-.034-.12-.1l-.5-2.12h-3.54l-.44 2.12a.315.315 0 01-.06.08c-.013.013-.033.02-.06.02h-4.2l-.06-.02c-.013-.014-.007-.04.02-.08 2.293-7.174 3.44-10.767 3.44-10.78.253-.734.353-1.234.3-1.5a1.761 1.761 0 00-.26-.68c-.12-.187-.167-.327-.14-.42.12-.374.473-.694 1.06-.96.6-.28 1.2-.42 1.8-.42.773 0 1.493.266 2.16.8.667.52 1.187 1.3 1.56 2.34.253.693.68 2.013 1.28 3.96.6 1.933 1.14 3.693 1.62 5.28l.72 2.38zm-8.18-4.82h2.34l-1.18-5.8c-.133.56-.34 1.573-.62 3.04-.28 1.453-.46 2.373-.54 2.76zm21.369.96c.267-.227.393-.187.38.12a5.914 5.914 0 01-.06.34c-.053.2-.14.433-.26.7-.107.266-.307.593-.6.98-.293.386-.64.74-1.04 1.06-.387.306-.907.573-1.56.8a6.508 6.508 0 01-2.14.38c-1.947.04-3.6-.7-4.96-2.22-1.347-1.52-2.02-3.327-2.02-5.42 0-2.054.653-3.814 1.96-5.28 1.32-1.48 3-2.227 5.04-2.24 1.56-.014 2.84.326 3.84 1.02 1 .68 1.5 1.56 1.5 2.64 0 .586-.2 1.113-.6 1.58-.4.466-.94.7-1.62.7-.44 0-.813-.067-1.12-.2-.293-.147-.433-.32-.42-.52.107-.734.04-1.367-.2-1.9-.227-.534-.653-.8-1.28-.8-.573 0-1.073.293-1.5.88-.427.586-.727 1.273-.9 2.06-.16.786-.193 1.526-.1 2.22.147 1.226.513 2.213 1.1 2.96.6.746 1.28 1.206 2.04 1.38.76.16 1.547.133 2.36-.08a5.174 5.174 0 002.16-1.16z" fill="#fff"/></svg>