<svg width="403" height="345" fill="none" xmlns="http://www.w3.org/2000/svg"><path d="M179.38 30.856c7.7-13.319 26.927-13.319 34.628 0L377.436 313.5c7.71 13.334-1.912 30.012-17.314 30.012H33.265c-15.401 0-25.023-16.678-17.314-30.012L179.38 30.856z" fill="#72BF44"/><path d="M173.114 207.112c.12 0 .18.1.18.3v34.2c0 .16-.08.26-.24.3h-11.58c-.16 0-.24-.1-.24-.3v-24c0-1.6-.16-2.86-.48-3.78-.28-.96-.64-1.64-1.08-2.04-.4-.4-.6-.62-.6-.66-.16-.28-.12-.52.12-.72.24-.2.66-.36 1.26-.48l12.66-2.82zm25.825 16.98v5.28c0 .12-.08.18-.24.18h-17.88l-.3-.24v-5.16c.04-.2.16-.3.36-.3h17.82c.16.04.24.12.24.24zm35.59 4.44c.16 0 .26.08.3.24v8.52c0 .16-.1.24-.3.24h-3.54v4.2c0 .16-.08.26-.24.3h-11.16l-.24-.18v-.12c0-1.12-.02-2.52-.06-4.2h-13.92c-.16 0-.26-.08-.3-.24v-8.1c0-.08.02-.14.06-.18a53.75 53.75 0 005.34-5.52c1.72-2 3.12-3.76 4.2-5.28a54.14 54.14 0 002.88-4.62c.88-1.52 1.48-2.62 1.8-3.3.36-.72.6-1.24.72-1.56v-.06l.24-.12h10.44c.16 0 .24.1.24.3v19.68h3.54zm-15.12-.06v-7.5c-2.92 3.96-4.82 6.46-5.7 7.5h5.7zm-36.993 56.34c.146.053.14.306-.02.76-.267.746-.747 1.266-1.44 1.56-.214.093-.44.153-.68.18-.747.08-1.414-.007-2-.26-.574-.24-1.04-.567-1.4-.98-.36-.414-.674-.954-.94-1.62a14.878 14.878 0 01-.58-1.84 25.08 25.08 0 01-.32-1.96c-.294-.067-.54-.04-.74.08l.14 6.08a.131.131 0 01-.1.1h-4.3l-.08-.06v-.04c-.014-6.12-.014-9.74 0-10.86-.04-.44-.12-.807-.24-1.1-.107-.294-.227-.494-.36-.6a1.63 1.63 0 00-.36-.28 2.487 2.487 0 01-.26-.16c-.054-.054-.067-.127-.04-.22.12-.347.46-.674 1.02-.98.573-.32 1.146-.48 1.72-.48.853 0 1.56.266 2.12.8.56.533.84 1.333.84 2.4l-.1 3.2c.053-.027.16-.054.32-.08.16-.027.26-.047.3-.06-.027-1.627.34-3.034 1.1-4.22.76-1.187 1.846-1.867 3.26-2.04.906-.107 1.66.08 2.26.56.6.48.846 1.133.74 1.96-.067.546-.247.986-.54 1.32-.28.333-.607.546-.98.64-.36.08-.72.12-1.08.12-.347 0-.64-.04-.88-.12-.24-.08-.36-.147-.36-.2v-.38c0-.04-.007-.1-.02-.18 0-.08-.014-.14-.04-.18a3.245 3.245 0 00-.1-.14.265.265 0 00-.18-.1.642.642 0 00-.24-.04c-.387 0-.687.266-.9.8-.214.533-.314 1.2-.3 2 .6-.014 1.066.166 1.4.54.346.373.713.98 1.1 1.82.773 1.613 1.446 2.74 2.02 3.38.426.453.84.746 1.24.88zm14.173-12.18l.08.06v.04l-.02 14.08a.131.131 0 01-.1.1h-4.14l-.08-.06v-11.84h-2.22c-.014.253-.034.7-.06 1.34a50.159 50.159 0 01-.06 1.64 40.566 40.566 0 01-.1 1.76 19.765 19.765 0 01-.22 1.86c-.094.52-.207 1.093-.34 1.72-.134.626-.314 1.16-.54 1.6-.214.44-.46.853-.74 1.24-.28.386-.62.673-1.02.86-.4.2-.84.3-1.32.3-.72 0-1.334-.234-1.84-.7-.507-.48-.76-.9-.76-1.26 0-.067.1-.207.3-.42.213-.214.466-.574.76-1.08.306-.507.606-1.174.9-2 .306-.827.56-2.034.76-3.62.213-1.6.326-3.44.34-5.52v-.02a.119.119 0 01.08-.08c1.52-.414 3.24-.62 5.16-.62 1.933-.014 3.66.193 5.18.62zm14.957 14.18c.013.053-.007.086-.06.1h-4.52c-.067 0-.107-.034-.12-.1l-.5-2.12h-3.54l-.44 2.12a.315.315 0 01-.06.08c-.013.013-.033.02-.06.02h-4.2l-.06-.02c-.013-.014-.007-.04.02-.08 2.293-7.174 3.44-10.767 3.44-10.78.253-.734.353-1.234.3-1.5a1.761 1.761 0 00-.26-.68c-.12-.187-.167-.327-.14-.42.12-.374.473-.694 1.06-.96.6-.28 1.2-.42 1.8-.42.773 0 1.493.266 2.16.8.667.52 1.187 1.3 1.56 2.34.253.693.68 2.013 1.28 3.96.6 1.933 1.14 3.693 1.62 5.28l.72 2.38zm-8.18-4.82h2.34l-1.18-5.8c-.133.56-.34 1.573-.62 3.04-.28 1.453-.46 2.373-.54 2.76zm21.369.96c.267-.227.393-.187.38.12a5.914 5.914 0 01-.06.34c-.053.2-.14.433-.26.7-.107.266-.307.593-.6.98-.293.386-.64.74-1.04 1.06-.387.306-.907.573-1.56.8a6.508 6.508 0 01-2.14.38c-1.947.04-3.6-.7-4.96-2.22-1.347-1.52-2.02-3.327-2.02-5.42 0-2.054.653-3.814 1.96-5.28 1.32-1.48 3-2.227 5.04-2.24 1.56-.014 2.84.326 3.84 1.02 1 .68 1.5 1.56 1.5 2.64 0 .586-.2 1.113-.6 1.58-.4.466-.94.7-1.62.7-.44 0-.813-.067-1.12-.2-.293-.147-.433-.32-.42-.52.107-.734.04-1.367-.2-1.9-.227-.534-.653-.8-1.28-.8-.573 0-1.073.293-1.5.88-.427.586-.727 1.273-.9 2.06-.16.786-.193 1.526-.1 2.22.147 1.226.513 2.213 1.1 2.96.6.746 1.28 1.206 2.04 1.38.76.16 1.547.133 2.36-.08a5.174 5.174 0 002.16-1.16z" fill="#fff"/></svg>