<svg width="70" height="71" fill="none" xmlns="http://www.w3.org/2000/svg"><rect x="5" y="5.19" width="59.658" height="60" rx="29.829" fill="#FFCC40"/><rect x="5" y="5.19" width="59.658" height="60" rx="29.829" stroke="#fff" stroke-width="10"/><path d="M35.734 24.51l11.872 6.978a.699.699 0 01.347.609.709.709 0 01-.347.608l-11.872 6.979a2.325 2.325 0 01-2.359 0l-11.872-6.979a.7.7 0 01-.347-.608.71.71 0 01.347-.609l11.872-6.978a2.33 2.33 0 012.359 0z" fill="#fff"/><path d="M35.734 24.51l11.872 6.978a.699.699 0 01.347.609.709.709 0 01-.347.608l-11.872 6.979a2.325 2.325 0 01-2.359 0l-11.872-6.979a.7.7 0 01-.347-.608.71.71 0 01.347-.609l11.872-6.978a2.33 2.33 0 012.359 0z" fill="#fff"/><path d="M47.602 32.71l-4.033 2.371-7.832 4.604a2.35 2.35 0 01-2.364 0l-7.832-4.604-4.043-2.37a.71.71 0 01-.345-.613.72.72 0 01.345-.613l11.875-6.974a2.35 2.35 0 012.364 0l11.865 6.974a.71.71 0 010 1.225z" fill="#fff"/><path d="M36.473 40.966c-.589.34-1.249.52-1.918.52-.669 0-1.33-.18-1.91-.515l-7.104-4.176v3.71c0 .83.43 1.59 1.143 2.005l4.951 2.895a5.81 5.81 0 005.83 0l4.961-2.895a2.328 2.328 0 001.143-2.005v-3.71l-7.096 4.171zm11.344.85v-7.518l-1.759 1.033v6.484a1.58 1.58 0 00-.596.783 1.598 1.598 0 00.546 1.797 1.552 1.552 0 001.857 0c.27-.2.468-.483.566-.806a1.6 1.6 0 00-.018-.989 1.58 1.58 0 00-.596-.785z" fill="#fff"/></svg>