<svg width="70" height="71" fill="none" xmlns="http://www.w3.org/2000/svg"><rect x="5" y="5.19" width="59.658" height="60" rx="29.829" fill="#FFCC40"/><rect x="5" y="5.19" width="59.658" height="60" rx="29.829" stroke="#fff" stroke-width="10"/><g clip-path="url(#clip0_178_1720)" fill="#fff"><path fill-rule="evenodd" clip-rule="evenodd" d="M20.549 26.523a4.36 4.36 0 011.255-3.064 4.26 4.26 0 013.029-1.27h14.28c.378 0 .741.153 1.009.424.268.27.418.638.418 1.021V41.33h-.045a1.45 1.45 0 01-.508.78c-.25.197-.558.303-.875.303v2.889c.379 0 .742.152 1.01.423a1.453 1.453 0 010 2.043 1.42 1.42 0 01-1.01.423h-14.28a4.26 4.26 0 01-3.029-1.27 4.36 4.36 0 01-1.254-3.064V26.523zm15.707 15.89H24.833a1.42 1.42 0 00-1.01.422 1.453 1.453 0 000 2.043c.268.27.631.423 1.01.423h11.423v-2.889zm-9.995-15.89a1.42 1.42 0 00-1.01.423 1.454 1.454 0 00-.418 1.022v5.777c0 .384.15.751.418 1.022.268.27.63.423 1.01.423h8.567a1.42 1.42 0 001.01-.423c.268-.271.418-.638.418-1.022v-5.777c0-.383-.15-.75-.418-1.022a1.42 1.42 0 00-1.01-.423h-8.567z"/><path d="M44.824 22.19c-.971 0-1.72.556-2.17 1.19-.45.636-.686 1.44-.686 2.264v17.081c0 .24.058.477.171.687l2.142 4.02c.122.229.304.42.525.554a1.416 1.416 0 001.988-.554l2.142-4.02c.113-.211.172-.447.172-.687V25.644c0-.824-.236-1.628-.686-2.264-.453-.634-1.2-1.19-2.17-1.19h-1.428z"/></g><defs><clipPath id="clip0_178_1720"><path fill="#fff" transform="translate(20 20.19)" d="M0 0h29.658v30H0z"/></clipPath></defs></svg>