<svg width="136" height="55" fill="none" xmlns="http://www.w3.org/2000/svg"><g clip-path="url(#clip0_1411_5918)" fill-rule="evenodd" clip-rule="evenodd"><path d="M89.9 14.3c-2.4 2.2-3.6 5.1-3.6 8.6 0 2.6.8 4.9 2.3 7 1.6 2.1 4.1 4.4 7.5 6.8 1.4 1 2.4 1.9 3 2.6.6.7.9 1.5.9 2.3 0 1.1-.4 1.9-1.1 2.6-.7.6-1.7 1-3 1-2.2 0-4.8-.9-8-2.6v9.5c2.8 1.2 5.5 1.8 8.3 1.8 4.1 0 7.5-1.2 10.2-3.5 2.7-2.3 4-5.2 4-8.8 0-3-1-5.7-3.1-8-2-2.3-4.1-4.1-6-5.3-3.3-2.1-5-4.1-5-5.8 0-1 .4-1.7 1.1-2.3.7-.6 1.7-.8 2.9-.8 1.9 0 4.3.8 7.3 2.3v-9.1c-2.8-1.1-5.6-1.7-8.4-1.7-3.7.1-6.8 1.2-9.3 3.4z" fill="#0092D2"/><path d="M114.4 14.3c-2.4 2.2-3.6 5.1-3.6 8.6 0 2.6.8 4.9 2.3 7 1.6 2.1 4.1 4.4 7.5 6.8 1.4 1 2.4 1.9 3 2.6.6.7.9 1.5.9 2.3 0 1.1-.4 1.9-1.1 2.6-.7.6-1.7 1-3 1-2.2 0-4.8-.9-8-2.6v9.5c2.8 1.2 5.5 1.8 8.3 1.8 4.1 0 7.5-1.2 10.2-3.5 2.7-2.3 4-5.2 4-8.8 0-3-1-5.7-3.1-8-2-2.3-4.1-4.1-6-5.3-3.3-2.1-5-4.1-5-5.8 0-1 .4-1.7 1.1-2.3.7-.6 1.7-.8 2.9-.8 1.9 0 4.3.8 7.3 2.3v-9.1c-2.8-1.1-5.6-1.7-8.4-1.7-3.8.1-6.9 1.2-9.3 3.4z" fill="#FFCE32"/><path d="M13.9 26.4c-3.5 0-6.2.9-6.5 2.7-.4 1.8 1.2 4.7 2.9 8.4 2.4 4.9 3.7 10.7 3.9 16.5 2.2.1 4.5.1 6.8.2 4.2-.3 6.7-7.7 6.9-11.2l-.2-16.7H13.9v.1z" fill="#76B82A"/><path d="M16.8 4.1c3.7 1.9 7 5.5 8.9 10.8 1.9 5.2 2.1 11 2.1 14.6v13.8c0-9.5-17.2-23-21.1-25.3C1.8 14.8.9 8.9.9 7.1.8 4.7.8 2.4.7 0 6.4.2 12 1.6 16.8 4.1z" fill="#E30613"/><path d="M43.7 26.4c3.5 0 6.2.9 6.5 2.7.4 1.8-1.2 4.7-2.9 8.4-2.4 4.9-3.7 10.7-3.9 16.5-2.2.1-4.5.1-6.8.2-4.2-.3-6.7-7.7-6.9-11.2l.2-16.7h13.8v.1z" fill="#FFCE32"/><path d="M40.9 4.1c-3.7 1.9-7 5.5-8.9 10.8-1.9 5.2-2.1 11-2.1 14.6v13.8c0-9.5 17.2-23 21.1-25.3 4.9-3.2 5.8-9.1 5.8-10.9.1-2.4.1-4.7.2-7.1-5.8.2-11.4 1.6-16.1 4.1z" fill="#0092D2"/><path d="M59.5 12.6h8.9L75.5 33V12.6h8.9v40.8h-8.9l-7.1-19.7v19.7h-8.9V12.6z" fill="#E30613"/></g><defs><clipPath id="clip0_1411_5918"><path fill="#fff" d="M0 0h135.7v54.2H0z"/></clipPath></defs></svg>