<svg width="15" height="16" fill="none" xmlns="http://www.w3.org/2000/svg"><path d="M14.05 4.006A4.04 4.04 0 0110.004 0H7.39v7.138l-.003 3.91a2.364 2.364 0 01-2.502 2.36 2.354 2.354 0 01-1.082-.331 2.364 2.364 0 01-1.156-1.993 2.367 2.367 0 013.115-2.28V6.153a5.14 5.14 0 00-.753-.055A5.01 5.01 0 001.246 7.78a4.9 4.9 0 00-1.237 2.956 4.894 4.894 0 001.458 3.814A5.01 5.01 0 005.01 16a4.993 4.993 0 003.543-1.45 4.89 4.89 0 001.467-3.481l-.013-5.84a6.604 6.604 0 004.05 1.377v-2.6h-.007z" fill="#4A4A4A"/></svg>