<svg width="10" height="5" viewBox="0 0 10 5" fill="none" xmlns="http://www.w3.org/2000/svg">
<path d="M5.00003 4.66902C4.92326 4.66947 4.84715 4.65475 4.77608 4.62572C4.70501 4.59669 4.64037 4.55392 4.58586 4.49986L1.08586 0.999856C0.976016 0.890013 0.914307 0.741032 0.914307 0.58569C0.914307 0.430347 0.976016 0.281367 1.08586 0.171523C1.1957 0.0616791 1.34468 -3.05176e-05 1.50003 -3.05176e-05C1.65537 -3.05176e-05 1.80435 0.0616791 1.91419 0.171523L5.00003 3.26319L8.08586 0.177356C8.19745 0.0817911 8.341 0.0318539 8.48781 0.0375246C8.63462 0.0431953 8.77388 0.104056 8.87777 0.207945C8.98166 0.311833 9.04252 0.451097 9.04819 0.597908C9.05386 0.74472 9.00393 0.888264 8.90836 0.999856L5.40836 4.49986C5.29971 4.60762 5.15306 4.66838 5.00003 4.66902Z" fill="#0E0A01"/>
</svg>
