<svg width="6" height="12" viewBox="0 0 6 12" fill="none" xmlns="http://www.w3.org/2000/svg">
<path d="M6.00003 6.2402C6.0001 6.30587 5.98719 6.3709 5.96205 6.43157C5.93691 6.49223 5.90003 6.54733 5.85353 6.5937L0.853531 11.5937C0.658156 11.7891 0.341781 11.7891 0.146531 11.5937C-0.0487188 11.3983 -0.0488437 11.082 0.146531 10.8867L4.79303 6.2402L0.146531 1.5937C-0.0488437 1.39833 -0.0488437 1.08195 0.146531 0.886702C0.341906 0.691451 0.658281 0.691326 0.853531 0.886702L5.85353 5.8867C5.90003 5.93307 5.93691 5.98817 5.96205 6.04884C5.98719 6.1095 6.0001 6.17453 6.00003 6.2402Z" fill="black"/>
</svg>
