<svg width="9" height="5" viewBox="0 0 9 5" fill="none" xmlns="http://www.w3.org/2000/svg">
<path d="M4.17505 4.16903L4.17426 4.16903C4.16329 4.16909 4.15242 4.16699 4.14227 4.16285C4.13228 4.15877 4.12319 4.15279 4.11548 4.14525C4.11535 4.14512 4.11522 4.14499 4.11509 4.14487L0.616538 0.646303C0.600462 0.630227 0.591431 0.608424 0.591431 0.58569C0.591431 0.562955 0.600462 0.541152 0.616538 0.525076C0.632613 0.509001 0.654417 0.499969 0.677151 0.499969C0.69984 0.499969 0.721602 0.508965 0.737668 0.524981C0.7377 0.525012 0.737732 0.525044 0.737764 0.525076L3.82326 3.61641L4.17682 3.97063L4.5307 3.61674L7.59669 0.550754C7.61112 0.541285 7.62822 0.536479 7.64563 0.537152C7.66661 0.537962 7.6865 0.546657 7.70134 0.561498C7.71618 0.576338 7.72488 0.596232 7.72569 0.617207C7.72636 0.634626 7.72155 0.651722 7.71209 0.666148L4.23338 4.14486C4.23325 4.14499 4.23312 4.14512 4.23299 4.14525C4.21751 4.1604 4.19672 4.16894 4.17505 4.16903Z" fill="#0E0A01" stroke="#0095D4"/>
</svg>
