<svg width="70" height="71" viewBox="0 0 70 71" fill="none" xmlns="http://www.w3.org/2000/svg">
<rect x="5" y="5.18994" width="59.6577" height="60" rx="29.8288" fill="#FFCC40"/>
<rect x="5" y="5.18994" width="59.6577" height="60" rx="29.8288" stroke="white" stroke-width="10"/>
<path d="M35.7339 24.5101L47.6064 31.4884C47.7118 31.5502 47.7993 31.6389 47.8601 31.7457C47.921 31.8525 47.953 31.9736 47.953 32.0969C47.953 32.2202 47.921 32.3413 47.8601 32.4481C47.7993 32.5549 47.7118 32.6436 47.6064 32.7054L35.7339 39.6837C35.3758 39.8944 34.9689 40.0054 34.5546 40.0054C34.1404 40.0054 33.7335 39.8944 33.3754 39.6837L21.5029 32.7054C21.3975 32.6436 21.3099 32.5549 21.2491 32.4481C21.1883 32.3413 21.1562 32.2202 21.1562 32.0969C21.1562 31.9736 21.1883 31.8525 21.2491 31.7457C21.3099 31.6389 21.3975 31.5502 21.5029 31.4884L33.3754 24.5101C33.7337 24.2999 34.1405 24.1892 34.5546 24.1892C34.9688 24.1892 35.3756 24.2999 35.7339 24.5101Z" fill="white"/>
<path d="M35.7339 24.5101L47.6064 31.4884C47.7118 31.5502 47.7993 31.6389 47.8601 31.7457C47.921 31.8525 47.953 31.9736 47.953 32.0969C47.953 32.2202 47.921 32.3413 47.8601 32.4481C47.7993 32.5549 47.7118 32.6436 47.6064 32.7054L35.7339 39.6837C35.3758 39.8944 34.9689 40.0054 34.5546 40.0054C34.1404 40.0054 33.7335 39.8944 33.3754 39.6837L21.5029 32.7054C21.3975 32.6436 21.3099 32.5549 21.2491 32.4481C21.1883 32.3413 21.1562 32.2202 21.1562 32.0969C21.1562 31.9736 21.1883 31.8525 21.2491 31.7457C21.3099 31.6389 21.3975 31.5502 21.5029 31.4884L33.3754 24.5101C33.7337 24.2999 34.1405 24.1892 34.5546 24.1892C34.9688 24.1892 35.3756 24.2999 35.7339 24.5101Z" fill="white"/>
<path d="M47.6025 32.7104L43.5691 35.0813L35.7368 39.6848C35.0044 40.1096 34.1059 40.1096 33.3735 39.6848L25.5412 35.0813L21.498 32.7104C21.393 32.6473 21.306 32.5577 21.2455 32.4503C21.1851 32.3429 21.1533 32.2215 21.1533 32.0979C21.1533 31.9744 21.1851 31.8529 21.2455 31.7455C21.306 31.6382 21.393 31.5485 21.498 31.4855L33.3735 24.5111C34.1059 24.0863 35.0044 24.0863 35.7368 24.5111L47.6025 31.4855C48.0713 31.7621 48.0713 32.4338 47.6025 32.7104Z" fill="white"/>
<path d="M36.4731 40.966C35.8842 41.3068 35.224 41.4856 34.555 41.4856C33.886 41.4856 33.2259 41.3068 32.6448 40.9709L25.541 36.7952V40.5046C25.541 41.3344 25.9707 42.0951 26.6836 42.51L31.635 45.4045C32.5223 45.9191 33.5273 46.1899 34.5501 46.1899C35.573 46.1899 36.578 45.9191 37.4653 45.4045L42.4264 42.51C43.1295 42.0951 43.569 41.3344 43.569 40.5046V36.7952L36.4731 40.966ZM47.8172 41.8155V34.2979L46.0584 35.3312V41.8146C45.7818 42.0046 45.5728 42.2793 45.462 42.5984C45.3511 42.9174 45.3443 43.264 45.4425 43.5873C45.5407 43.9106 45.7388 44.1935 46.0076 44.3945C46.2764 44.5955 46.6019 44.7041 46.9362 44.7043C47.2705 44.7045 47.5961 44.5963 47.8652 44.3955C48.1342 44.1948 48.3326 43.9121 48.4311 43.589C48.5297 43.2658 48.5232 42.9192 48.4127 42.6C48.3023 42.2809 48.0935 42.0059 47.8172 41.8155Z" fill="white"/>
</svg>
