<svg width="70" height="71" viewBox="0 0 70 71" fill="none" xmlns="http://www.w3.org/2000/svg">
<rect x="5" y="5.18994" width="59.6577" height="60" rx="29.8288" fill="#FFCC40"/>
<rect x="5" y="5.18994" width="59.6577" height="60" rx="29.8288" stroke="white" stroke-width="10"/>
<g clip-path="url(#clip0_178_1705)">
<path d="M23.5602 50.1899H23.5377C23.3328 50.1871 23.1304 50.1439 22.9423 50.0628C22.7541 49.9817 22.5837 49.8644 22.4409 49.7174C22.2981 49.5704 22.1857 49.3967 22.1101 49.2063C22.0344 49.0158 21.9971 48.8123 22.0002 48.6074C22.0977 41.4749 28.5477 37.7624 34.9002 37.7624H35.0127C41.1027 37.8074 47.6577 41.2049 47.6577 48.5774C47.6577 49.4399 46.9602 50.1374 46.0977 50.1374C45.2352 50.1374 24.4152 50.1899 23.5602 50.1899ZM34.9227 34.9124C30.8802 34.9124 27.5877 31.6124 27.5877 27.5474C27.5877 23.4824 30.8802 20.1899 34.9227 20.1899C38.9652 20.1899 42.2577 23.4899 42.2577 27.5549C42.2577 31.6199 38.9652 34.9199 34.9227 34.9199V34.9124Z" fill="white"/>
</g>
<defs>
<clipPath id="clip0_178_1705">
<rect width="29.6577" height="30" fill="white" transform="translate(20 20.1899)"/>
</clipPath>
</defs>
</svg>
