<svg width="70" height="71" viewBox="0 0 70 71" fill="none" xmlns="http://www.w3.org/2000/svg">
<rect x="5" y="5.18994" width="59.6577" height="60" rx="29.8288" fill="#FFCC40"/>
<rect x="5" y="5.18994" width="59.6577" height="60" rx="29.8288" stroke="white" stroke-width="10"/>
<g clip-path="url(#clip0_178_1724)">
<path d="M32.3583 32.7994H36.5697C36.7831 31.6243 37.4014 30.5637 38.3148 29.8062H38.3288C39.4262 29.7776 40.4784 29.3582 41.3 28.6218C42.6226 27.4356 43.3486 25.4647 43.4469 22.7549C43.4589 22.4103 43.3355 22.0749 43.1039 21.8219C42.8722 21.569 42.5511 21.419 42.2105 21.4047C41.4368 21.3649 40.9029 21.9372 40.8757 22.6573C40.797 24.7048 40.3118 26.1289 39.465 26.778C39.2936 26.9106 39.1018 27.014 38.8974 27.084L38.8777 27.0888C38.3204 26.5506 37.5495 26.2881 37.0287 26.2881H30.6638C29.4967 26.2881 28.5685 27.4735 28.5479 28.7744C30.4924 29.2548 32.0005 30.8456 32.3583 32.7994Z" fill="white"/>
<path d="M33.8446 26.2445C35.5316 26.2445 36.8992 24.8892 36.8992 23.2172C36.8992 21.5453 35.5316 20.1899 33.8446 20.1899C32.1576 20.1899 30.79 21.5453 30.79 23.2172C30.79 24.8892 32.1576 26.2445 33.8446 26.2445Z" fill="white"/>
<path d="M33.4502 40.6049C33.4502 38.2561 32.4498 37.264 31.0616 37.264H27.8431C29.5798 37.0072 30.9108 35.5263 30.9108 33.7317C30.9108 31.7609 29.2997 30.1615 27.3073 30.1615C25.3187 30.1615 23.7067 31.7609 23.7067 33.7317C23.7067 35.5263 25.0377 37.0063 26.7753 37.264H23.5549C22.1649 37.264 21.0371 38.7687 21.0371 40.3235V45.08H33.4502V40.6049ZM37.892 33.7317C37.892 35.5263 39.224 37.0063 40.9588 37.264H37.7375C36.3465 37.264 35.2852 38.7687 35.2852 40.3235V45.08H47.6027V40.6078C47.6027 38.2864 46.6389 37.3095 45.2788 37.2858C45.2591 37.2858 45.261 37.2659 45.2441 37.2659H42.0238C43.7614 37.0091 45.0933 35.5282 45.0933 33.7327C45.0933 31.7618 43.4803 30.1624 41.4908 30.1624C39.5031 30.1615 37.892 31.7609 37.892 33.7317ZM20.0273 47.1209H49.6307V50.1899H20.0273V47.1209Z" fill="white"/>
</g>
<defs>
<clipPath id="clip0_178_1724">
<rect width="29.6577" height="30" fill="white" transform="translate(20 20.1899)"/>
</clipPath>
</defs>
</svg>
