<svg width="70" height="71" viewBox="0 0 70 71" fill="none" xmlns="http://www.w3.org/2000/svg">
<rect x="5" y="5.18994" width="59.6577" height="60" rx="29.8288" fill="#FFCC40"/>
<rect x="5" y="5.18994" width="59.6577" height="60" rx="29.8288" stroke="white" stroke-width="10"/>
<g clip-path="url(#clip0_178_1728)">
<path d="M41.2009 30.4438C41.6808 30.4438 42.0698 30.0503 42.0698 29.5649C42.0698 29.0795 41.6808 28.686 41.2009 28.686C40.721 28.686 40.332 29.0795 40.332 29.5649C40.332 30.0503 40.721 30.4438 41.2009 30.4438Z" fill="white"/>
<path d="M43.2283 22.8267C43.7081 22.8267 44.0971 22.4332 44.0971 21.9478C44.0971 21.4623 43.7081 21.0688 43.2283 21.0688C42.7484 21.0688 42.3594 21.4623 42.3594 21.9478C42.3594 22.4332 42.7484 22.8267 43.2283 22.8267Z" fill="white"/>
<path d="M28.4568 30.4438C28.9366 30.4438 29.3256 30.0503 29.3256 29.5649C29.3256 29.0795 28.9366 28.686 28.4568 28.686C27.9769 28.686 27.5879 29.0795 27.5879 29.5649C27.5879 30.0503 27.9769 30.4438 28.4568 30.4438Z" fill="white"/>
<path d="M26.4294 22.8267C26.9093 22.8267 27.2983 22.4332 27.2983 21.9478C27.2983 21.4623 26.9093 21.0688 26.4294 21.0688C25.9496 21.0688 25.5605 21.4623 25.5605 21.9478C25.5605 22.4332 25.9496 22.8267 26.4294 22.8267Z" fill="white"/>
<path d="M47.9509 22.6509C47.2507 22.6498 46.5727 22.8993 46.0369 23.3551C45.501 23.8109 45.1418 24.4438 45.0228 25.1417L43.9631 31.299C44.689 31.4484 45.3809 31.8066 45.9428 32.375C47.4672 33.9171 47.4672 36.4262 45.9428 37.9683L41.9081 42.0496C41.5688 42.3928 41.0187 42.3928 40.6793 42.0496C40.34 41.7063 40.34 41.1499 40.6793 40.8066L44.7141 36.7253C45.561 35.8686 45.561 34.4746 44.7141 33.6179C44.4261 33.3261 44.0624 33.1228 43.6649 33.0314L43.664 33.0304C42.9596 32.8675 42.1907 33.063 41.6421 33.6179L37.3674 37.9419C36.3281 38.9933 35.7556 40.3911 35.7556 41.8779V49.3111C35.7556 49.7965 36.1447 50.19 36.6245 50.19H44.1548C44.6346 50.19 45.0237 49.7965 45.0237 49.3111V43.0288L48.3852 39.6284C49.2057 38.7984 49.6577 37.6948 49.6577 36.521V24.3775C49.6577 23.4254 48.892 22.6509 47.9509 22.6509ZM32.2903 37.9419L28.0156 33.6179C27.4671 33.063 26.6983 32.8676 25.994 33.0303L25.9928 33.0314C25.5953 33.1228 25.2316 33.3262 24.9436 33.6179C24.0967 34.4746 24.0967 35.8686 24.9436 36.7253L28.9784 40.8066C29.3177 41.1498 29.3177 41.7063 28.9784 42.0495C28.6391 42.3928 28.089 42.3928 27.7496 42.0495L23.715 37.9682C22.1905 36.4262 22.1905 33.917 23.715 32.3749C24.2769 31.8065 24.9688 31.4484 25.6947 31.299L24.6349 25.1417C24.5159 24.4438 24.1567 23.8109 23.6208 23.3551C23.0849 22.8993 22.407 22.6498 21.7068 22.6509C20.7657 22.6509 20 23.4254 20 24.3775V36.521C20 37.6948 20.4519 38.7984 21.2725 39.6284L24.634 43.0288V49.3111C24.634 49.7965 25.023 50.19 25.5029 50.19H33.0332C33.513 50.19 33.902 49.7965 33.902 49.3111V41.8779C33.902 40.3911 33.3296 38.9933 32.2903 37.9419ZM38.4087 33.093C38.2705 33.093 38.1317 33.0596 38.0045 32.992L34.8288 31.3032L31.6532 32.992C31.5097 33.0683 31.348 33.1025 31.1862 33.0907C31.0245 33.0789 30.8693 33.0215 30.7382 32.9251C30.607 32.8287 30.5051 32.6971 30.444 32.5452C30.383 32.3933 30.3651 32.2271 30.3925 32.0655L30.999 28.4885L28.4298 25.9554C28.3138 25.8409 28.2317 25.6959 28.1928 25.5367C28.154 25.3774 28.16 25.2104 28.2101 25.0545C28.2602 24.8985 28.3524 24.7598 28.4763 24.6541C28.6003 24.5484 28.751 24.4799 28.9114 24.4563L32.4618 23.9344L34.0497 20.68C34.1214 20.533 34.2324 20.4091 34.3701 20.3225C34.5078 20.236 34.6667 20.1901 34.8288 20.1901C34.9909 20.1901 35.1498 20.2359 35.2875 20.3225C35.4252 20.4091 35.5362 20.5329 35.608 20.68L37.1958 23.9344L40.7463 24.4562C40.9068 24.4798 41.0575 24.5483 41.1815 24.654C41.3054 24.7597 41.3977 24.8984 41.4478 25.0544C41.4979 25.2103 41.5038 25.3774 41.4649 25.5366C41.4261 25.6958 41.3439 25.8409 41.2278 25.9553L38.6586 28.4885L39.2652 32.0655C39.2865 32.1916 39.2804 32.321 39.2472 32.4445C39.214 32.568 39.1546 32.6827 39.073 32.7806C38.9915 32.8784 38.8897 32.9571 38.775 33.0111C38.6603 33.065 38.5353 33.093 38.4087 33.093Z" fill="white"/>
<path d="M34.8288 35.7173C35.3087 35.7173 35.6977 35.3238 35.6977 34.8384C35.6977 34.353 35.3087 33.9595 34.8288 33.9595C34.349 33.9595 33.96 34.353 33.96 34.8384C33.96 35.3238 34.349 35.7173 34.8288 35.7173Z" fill="white"/>
</g>
<defs>
<clipPath id="clip0_178_1728">
<rect width="29.6577" height="30" fill="white" transform="translate(20 20.1899)"/>
</clipPath>
</defs>
</svg>
