<svg width="70" height="71" viewBox="0 0 70 71" fill="none" xmlns="http://www.w3.org/2000/svg">
<rect x="5" y="5.18994" width="59.6577" height="60" rx="29.8288" fill="#FFCC40"/>
<rect x="5" y="5.18994" width="59.6577" height="60" rx="29.8288" stroke="white" stroke-width="10"/>
<g clip-path="url(#clip0_178_1712)">
<path d="M34.8288 26.5728C30.1315 26.5728 26.31 30.4383 26.31 35.1899C26.31 39.9415 30.1315 43.8071 34.8288 43.8071C39.5262 43.8071 43.3477 39.9415 43.3477 35.1899C43.3477 30.4383 39.5262 26.5728 34.8288 26.5728ZM34.8288 24.5206C35.3221 24.5206 35.7222 24.116 35.7222 23.617V21.0936C35.7222 20.5946 35.3221 20.1899 34.8288 20.1899C34.3355 20.1899 33.9355 20.5946 33.9355 21.0936V23.617C33.9355 24.116 34.3355 24.5206 34.8288 24.5206ZM34.8288 45.8593C34.3355 45.8593 33.9355 46.2639 33.9355 46.7629V49.2863C33.9355 49.7853 34.3355 50.1899 34.8288 50.1899C35.3221 50.1899 35.7222 49.7853 35.7222 49.2863V46.7629C35.7222 46.2639 35.3221 45.8593 34.8288 45.8593ZM43.5504 27.6455L45.3144 25.8612C45.6633 25.5085 45.6633 24.9363 45.3144 24.5834C44.9655 24.2304 44.3998 24.2304 44.0511 24.5834L42.2872 26.3678C41.9382 26.7207 41.9382 27.2927 42.2872 27.6456C42.6359 27.9986 43.2015 27.9985 43.5504 27.6455ZM26.1073 42.7344L24.3432 44.5187C23.9943 44.8714 23.9943 45.4436 24.3432 45.7965C24.6922 46.1493 25.2579 46.1494 25.6066 45.7965L27.3705 44.0121C27.7195 43.6592 27.7195 43.0872 27.3705 42.7343C27.0216 42.3813 26.4562 42.3813 26.1073 42.7343V42.7344ZM48.7644 34.2863H46.2698C45.7762 34.2863 45.3764 34.691 45.3764 35.1899C45.3764 35.6889 45.7762 36.0936 46.2698 36.0936H48.7644C49.2576 36.0936 49.6577 35.6889 49.6577 35.1899C49.6577 34.691 49.2576 34.2863 48.7644 34.2863ZM23.3879 34.2863H20.8933C20.4 34.2863 20 34.691 20 35.1899C20 35.6889 20.4 36.0936 20.8933 36.0936H23.3879C23.8812 36.0936 24.2812 35.6889 24.2812 35.1899C24.2812 34.691 23.8812 34.2863 23.3879 34.2863ZM43.5504 42.7344C43.2015 42.3814 42.636 42.3814 42.2872 42.7344C41.9382 43.0873 41.9382 43.6593 42.2872 44.0122L44.0512 45.7966C44.3999 46.1493 44.9655 46.1495 45.3144 45.7966C45.6633 45.4436 45.6633 44.8714 45.3144 44.5187L43.5504 42.7344ZM26.1073 27.6455C26.4562 27.9985 27.0216 27.9985 27.3705 27.6455C27.7195 27.2926 27.7195 26.7206 27.3705 26.3677L25.6066 24.5833C25.2579 24.2304 24.6922 24.2304 24.3433 24.5833C23.9944 24.9363 23.9944 25.5085 24.3433 25.8612L26.1073 27.6455Z" fill="white"/>
</g>
<defs>
<clipPath id="clip0_178_1712">
<rect width="29.6577" height="30" fill="white" transform="translate(20 20.1899)"/>
</clipPath>
</defs>
</svg>
