<svg width="70" height="71" viewBox="0 0 70 71" fill="none" xmlns="http://www.w3.org/2000/svg">
<rect x="5" y="5.18994" width="59.6577" height="60" rx="29.8288" fill="#FFCC40"/>
<rect x="5" y="5.18994" width="59.6577" height="60" rx="29.8288" stroke="white" stroke-width="10"/>
<g clip-path="url(#clip0_178_1720)">
<path fill-rule="evenodd" clip-rule="evenodd" d="M20.5488 26.5233C20.5488 25.374 21.0002 24.2718 21.8035 23.4591C22.6069 22.6465 23.6965 22.1899 24.8327 22.1899H39.1123C39.491 22.1899 39.8542 22.3421 40.122 22.613C40.3898 22.8839 40.5402 23.2513 40.5402 23.6344V41.3288H40.4945C40.4154 41.6388 40.2367 41.9134 39.9865 42.1095C39.7363 42.3056 39.4288 42.412 39.1123 42.4121V45.301C39.491 45.301 39.8542 45.4532 40.122 45.7241C40.3898 45.9949 40.5402 46.3623 40.5402 46.7454C40.5402 47.1285 40.3898 47.4959 40.122 47.7668C39.8542 48.0377 39.491 48.1899 39.1123 48.1899H24.8327C23.6965 48.1899 22.6069 47.7333 21.8035 46.9207C21.0002 46.108 20.5488 45.0058 20.5488 43.8565V26.5233ZM36.2564 42.4121H24.8327C24.454 42.4121 24.0908 42.5643 23.823 42.8352C23.5552 43.1061 23.4047 43.4735 23.4047 43.8565C23.4047 44.2396 23.5552 44.607 23.823 44.8779C24.0908 45.1488 24.454 45.301 24.8327 45.301H36.2564V42.4121ZM26.2607 26.5233C25.8819 26.5233 25.5187 26.6754 25.2509 26.9463C24.9831 27.2172 24.8327 27.5846 24.8327 27.9677V33.7455C24.8327 34.1286 24.9831 34.496 25.2509 34.7668C25.5187 35.0377 25.8819 35.1899 26.2607 35.1899H34.8284C35.2071 35.1899 35.5703 35.0377 35.8381 34.7668C36.1059 34.496 36.2564 34.1286 36.2564 33.7455V27.9677C36.2564 27.5846 36.1059 27.2172 35.8381 26.9463C35.5703 26.6754 35.2071 26.5233 34.8284 26.5233H26.2607Z" fill="white"/>
<path d="M44.8237 22.1899C43.8527 22.1899 43.1044 22.7461 42.6532 23.3802C42.2034 24.0157 41.9678 24.8203 41.9678 25.6436V42.7255C41.9678 42.9653 42.0263 43.2022 42.1391 43.4117L44.2811 47.4315C44.4034 47.6608 44.5848 47.8524 44.806 47.9859C45.0273 48.1194 45.2801 48.1899 45.5377 48.1899C45.7953 48.1899 46.0481 48.1194 46.2693 47.9859C46.4905 47.8524 46.6719 47.6608 46.7943 47.4315L48.9362 43.4117C49.0487 43.2009 49.1076 42.9651 49.1076 42.7255V25.6436C49.1076 24.8203 48.872 24.0157 48.4221 23.3802C47.9695 22.7461 47.2227 22.1899 46.2516 22.1899H44.8237Z" fill="white"/>
</g>
<defs>
<clipPath id="clip0_178_1720">
<rect width="29.6577" height="30" fill="white" transform="translate(20 20.1899)"/>
</clipPath>
</defs>
</svg>
