<svg width="136" height="55" viewBox="0 0 136 55" fill="none" xmlns="http://www.w3.org/2000/svg">
<g clip-path="url(#clip0_1411_5918)">
<path fill-rule="evenodd" clip-rule="evenodd" d="M89.9 14.3C87.5 16.5 86.3 19.4 86.3 22.9C86.3 25.5 87.1 27.8 88.6 29.9C90.2 32 92.7 34.3 96.1 36.7C97.5 37.7 98.5 38.6 99.1 39.3C99.7 40 100 40.8 100 41.6C100 42.7 99.6 43.5 98.9 44.2C98.2 44.8 97.2 45.2 95.9 45.2C93.7 45.2 91.1 44.3 87.9 42.6V52.1C90.7 53.3 93.4 53.9 96.2 53.9C100.3 53.9 103.7 52.7 106.4 50.4C109.1 48.1 110.4 45.2 110.4 41.6C110.4 38.6 109.4 35.9 107.3 33.6C105.3 31.3 103.2 29.5 101.3 28.3C98 26.2 96.3 24.2 96.3 22.5C96.3 21.5 96.7 20.8 97.4 20.2C98.1 19.6 99.1 19.4 100.3 19.4C102.2 19.4 104.6 20.2 107.6 21.7V12.6C104.8 11.5 102 10.9 99.2 10.9C95.5 11 92.4 12.1 89.9 14.3Z" fill="#0092D2"/>
<path fill-rule="evenodd" clip-rule="evenodd" d="M114.4 14.3C112 16.5 110.8 19.4 110.8 22.9C110.8 25.5 111.6 27.8 113.1 29.9C114.7 32 117.2 34.3 120.6 36.7C122 37.7 123 38.6 123.6 39.3C124.2 40 124.5 40.8 124.5 41.6C124.5 42.7 124.1 43.5 123.4 44.2C122.7 44.8 121.7 45.2 120.4 45.2C118.2 45.2 115.6 44.3 112.4 42.6V52.1C115.2 53.3 117.9 53.9 120.7 53.9C124.8 53.9 128.2 52.7 130.9 50.4C133.6 48.1 134.9 45.2 134.9 41.6C134.9 38.6 133.9 35.9 131.8 33.6C129.8 31.3 127.7 29.5 125.8 28.3C122.5 26.2 120.8 24.2 120.8 22.5C120.8 21.5 121.2 20.8 121.9 20.2C122.6 19.6 123.6 19.4 124.8 19.4C126.7 19.4 129.1 20.2 132.1 21.7V12.6C129.3 11.5 126.5 10.9 123.7 10.9C119.9 11 116.8 12.1 114.4 14.3Z" fill="#FFCE32"/>
<path fill-rule="evenodd" clip-rule="evenodd" d="M13.8999 26.4C10.3999 26.4 7.69994 27.3 7.39994 29.1C6.99994 30.9 8.59994 33.8 10.2999 37.5C12.6999 42.4 13.9999 48.2 14.1999 54C16.3999 54.1 18.6999 54.1 20.9999 54.2C25.1999 53.9 27.6999 46.5 27.8999 43L27.6999 26.3H13.8999V26.4Z" fill="#76B82A"/>
<path fill-rule="evenodd" clip-rule="evenodd" d="M16.7999 4.1C20.5 6 23.8 9.6 25.7 14.9C27.6 20.1 27.7999 25.9 27.7999 29.5V43.3C27.7999 33.8 10.6 20.3 6.69995 18C1.79995 14.8 0.899951 8.9 0.899951 7.1C0.799951 4.7 0.799951 2.4 0.699951 0C6.39995 0.2 11.9999 1.6 16.7999 4.1Z" fill="#E30613"/>
<path fill-rule="evenodd" clip-rule="evenodd" d="M43.7 26.4C47.2 26.4 49.9 27.3 50.2 29.1C50.6 30.9 49 33.8 47.2999 37.5C44.9 42.4 43.6 48.2 43.4 54C41.2 54.1 38.8999 54.1 36.5999 54.2C32.3999 53.9 29.9 46.5 29.7 43L29.9 26.3H43.7V26.4Z" fill="#FFCE32"/>
<path fill-rule="evenodd" clip-rule="evenodd" d="M40.9 4.1C37.2 6 33.9 9.6 32 14.9C30.1 20.1 29.9 25.9 29.9 29.5V43.3C29.9 33.8 47.1 20.3 51 18C55.9 14.8 56.8 8.9 56.8 7.1C56.9 4.7 56.9 2.4 57 0C51.2 0.2 45.6 1.6 40.9 4.1Z" fill="#0092D2"/>
<path fill-rule="evenodd" clip-rule="evenodd" d="M59.5 12.6H68.4L75.5 33V12.6H84.4V53.4H75.5L68.4 33.7V53.4H59.5V12.6Z" fill="#E30613"/>
</g>
<defs>
<clipPath id="clip0_1411_5918">
<rect width="135.7" height="54.2" fill="white"/>
</clipPath>
</defs>
</svg>
