<svg width="14" height="19" viewBox="0 0 14 19" fill="none" xmlns="http://www.w3.org/2000/svg">
<path d="M7 0.810059C3.2785 0.810059 0.25 3.85956 0.25 7.60881C0.25 12.9361 6.3655 18.4366 6.62575 18.6676C6.72862 18.7596 6.86179 18.8106 6.99986 18.8108C7.13792 18.8109 7.2712 18.7602 7.37425 18.6683C7.6345 18.4366 13.75 12.9361 13.75 7.60881C13.75 3.85956 10.7215 0.810059 7 0.810059ZM7 11.3101C4.93225 11.3101 3.25 9.62781 3.25 7.56006C3.25 5.49231 4.93225 3.81006 7 3.81006C9.06775 3.81006 10.75 5.49231 10.75 7.56006C10.75 9.62781 9.06775 11.3101 7 11.3101Z" fill="#0095D4"/>
</svg>
