<svg width="20" height="27" viewBox="0 0 20 27" fill="none" xmlns="http://www.w3.org/2000/svg">
<path d="M10 0.310059C4.6245 0.310059 0.25 4.71489 0.25 10.1305C0.25 17.8254 9.0835 25.7706 9.45942 26.1042C9.608 26.2372 9.80037 26.3109 9.99979 26.3111C10.1992 26.3113 10.3917 26.238 10.5406 26.1053C10.9165 25.7706 19.75 17.8254 19.75 10.1305C19.75 4.71489 15.3755 0.310059 10 0.310059ZM10 15.4767C7.01325 15.4767 4.58333 13.0468 4.58333 10.0601C4.58333 7.07331 7.01325 4.64339 10 4.64339C12.9868 4.64339 15.4167 7.07331 15.4167 10.0601C15.4167 13.0468 12.9868 15.4767 10 15.4767Z" fill="white"/>
</svg>
