<svg width="18" height="14" viewBox="0 0 18 14" fill="none" xmlns="http://www.w3.org/2000/svg">
<path d="M10.5043 8.83836C10.0565 9.1369 9.53631 9.29472 9 9.29472C8.46373 9.29472 7.94355 9.1369 7.49573 8.83836L0.119848 3.92095C0.0791298 3.89372 0.0391656 3.86539 0 3.83597L0 11.8937C0 12.8175 0.749707 13.5507 1.65702 13.5507H16.3429C17.2668 13.5507 18 12.801 18 11.8937V3.83594C17.9607 3.86543 17.9207 3.89382 17.8799 3.92109L10.5043 8.83836Z" fill="#0095D4"/>
<path d="M0.704884 3.04327L8.08077 7.96072C8.35998 8.14687 8.67997 8.23993 8.99997 8.23993C9.31999 8.23993 9.64002 8.14684 9.91923 7.96072L17.2951 3.04327C17.7365 2.74919 18 2.257 18 1.72579C18 0.812399 17.2569 0.0693359 16.3435 0.0693359H1.65646C0.743099 0.0693711 8.71912e-07 0.812434 8.71912e-07 1.72667C-0.000272946 1.98725 0.0639503 2.24385 0.186942 2.47358C0.309934 2.70331 0.487872 2.89902 0.704884 3.04327Z" fill="#0095D4"/>
</svg>
