<svg width="26" height="21" viewBox="0 0 26 21" fill="none" xmlns="http://www.w3.org/2000/svg">
<path d="M15.1729 13.2396C14.526 13.6709 13.7747 13.8988 13 13.8988C12.2254 13.8988 11.474 13.6709 10.8272 13.2396L0.173113 6.13671C0.114299 6.09738 0.0565725 6.05645 0 6.01397L0 17.6529C0 18.9873 1.08291 20.0463 2.39347 20.0463H23.6065C24.9409 20.0463 25.9999 18.9634 25.9999 17.6529V6.01392C25.9433 6.05652 25.8854 6.09753 25.8265 6.13691L15.1729 13.2396Z" fill="white"/>
<path d="M1.01817 4.86917L11.6722 11.9722C12.0755 12.241 12.5377 12.3755 13 12.3755C13.4622 12.3755 13.9245 12.241 14.3278 11.9722L24.9818 4.86917C25.6194 4.44439 26 3.73345 26 2.96615C26 1.6468 24.9266 0.573486 23.6073 0.573486H2.39266C1.07336 0.573537 1.25943e-06 1.64685 1.25943e-06 2.96742C-0.000394255 3.34381 0.0923726 3.71445 0.270028 4.04628C0.447683 4.37811 0.704704 4.66081 1.01817 4.86917Z" fill="white"/>
</svg>
