<svg width="26" height="20" viewBox="0 0 26 20" fill="none" xmlns="http://www.w3.org/2000/svg">
<path d="M15.1729 12.9297C14.526 13.361 13.7747 13.5889 13 13.5889C12.2254 13.5889 11.474 13.361 10.8272 12.9297L0.173113 5.8268C0.114299 5.78748 0.0565725 5.74655 0 5.70406L0 17.343C0 18.6774 1.08291 19.7364 2.39347 19.7364H23.6065C24.9409 19.7364 25.9999 18.6535 25.9999 17.343V5.70401C25.9433 5.74661 25.8854 5.78762 25.8265 5.827L15.1729 12.9297Z" fill="#8AC5AC"/>
<path d="M1.01817 4.55919L11.6722 11.6622C12.0755 11.9311 12.5377 12.0655 13 12.0655C13.4622 12.0655 13.9245 11.931 14.3278 11.6622L24.9818 4.55919C25.6194 4.13441 26 3.42347 26 2.65616C26 1.33682 24.9266 0.263504 23.6073 0.263504H2.39266C1.07336 0.263555 1.25943e-06 1.33687 1.25943e-06 2.65743C-0.000394255 3.03383 0.0923726 3.40447 0.270028 3.7363C0.447683 4.06813 0.704704 4.35083 1.01817 4.55919Z" fill="#8AC5AC"/>
</svg>
