<svg width="53" height="53" viewBox="0 0 53 53" fill="none" xmlns="http://www.w3.org/2000/svg">
<path d="M32.1915 20.1362L32.0736 20.8303L32.7678 20.7129L49.8752 17.8201L34.6902 26.2133L34.074 26.5539L34.5986 27.0235L47.5266 38.5949L31.4968 31.9558L30.8463 31.6864L30.8063 32.3894L29.8198 49.7115L25.0161 33.0396L24.8211 32.363L24.2466 32.77L10.0886 42.7989L20.1281 28.6484L20.5355 28.0742L19.8591 27.8787L3.19077 23.0625L20.5136 22.089L21.2166 22.0495L20.9477 21.3988L14.3206 5.36408L25.8824 18.3007L26.3516 18.8257L26.6926 18.2097L35.0972 3.03101L32.1915 20.1362Z" fill="#0E0A01" stroke="black"/>
</svg>
