<svg width="26" height="27" viewBox="0 0 26 27" fill="none" xmlns="http://www.w3.org/2000/svg">
<path d="M23.9138 17.3761C22.3219 17.3761 20.759 17.1271 19.2778 16.6377C18.5521 16.3901 17.6599 16.6172 17.2169 17.0721L14.2935 19.279C10.9031 17.4692 8.81474 15.3815 7.02968 12.0166L9.17164 9.16936C9.72813 8.61361 9.92774 7.80178 9.68859 7.04006C9.19703 5.55116 8.94732 3.98892 8.94732 2.39642C8.94739 1.24599 8.01145 0.310059 6.86109 0.310059H2.0863C0.935932 0.310059 0 1.24599 0 2.39636C0 15.5826 10.7276 26.3101 23.9138 26.3101C25.0641 26.3101 26.0001 25.3741 26.0001 24.2238V19.4623C26 18.312 25.0641 17.3761 23.9138 17.3761Z" fill="white"/>
</svg>
