<svg width="18" height="19" viewBox="0 0 18 19" fill="none" xmlns="http://www.w3.org/2000/svg">
<path d="M16.5557 12.625C15.4537 12.625 14.3716 12.4526 13.3462 12.1138C12.8437 11.9424 12.2261 12.0996 11.9194 12.4146L9.8955 13.9424C7.54833 12.6895 6.10252 11.2442 4.8667 8.91461L6.34959 6.94342C6.73486 6.55867 6.87305 5.99664 6.70748 5.46929C6.36717 4.43851 6.1943 3.35696 6.1943 2.25446C6.19434 1.45801 5.54639 0.810059 4.74998 0.810059H1.44436C0.647953 0.810059 0 1.45801 0 2.25442C0 11.3833 7.42678 18.8101 16.5557 18.8101C17.3521 18.8101 18 18.1621 18 17.3657V14.0693C18 13.2729 17.352 12.625 16.5557 12.625Z" fill="#0095D4"/>
</svg>
