<svg width="16" height="17" viewBox="0 0 16 17" fill="none" xmlns="http://www.w3.org/2000/svg">
<path d="M14.7162 11.0022C13.7366 11.0022 12.7747 10.849 11.8633 10.5478C11.4167 10.3954 10.8676 10.5352 10.595 10.8151L8.796 12.1732C6.70963 11.0595 5.42446 9.77475 4.32596 7.70404L5.64408 5.95188C5.98654 5.60988 6.10938 5.11029 5.96221 4.64154C5.65971 3.72529 5.50604 2.76392 5.50604 1.78392C5.50608 1.07596 4.93013 0.5 4.22221 0.5H1.28387C0.575958 0.5 0 1.07596 0 1.78387C0 9.89846 6.60158 16.5 14.7162 16.5C15.4241 16.5 16 15.924 16 15.2161V12.286C16 11.5781 15.424 11.0022 14.7162 11.0022Z" fill="#FFCC40"/>
</svg>
