<svg width="15" height="16" viewBox="0 0 15 16" fill="none" xmlns="http://www.w3.org/2000/svg">
<path d="M14.0496 4.00615C13.1351 4.00615 12.2913 3.70318 11.6137 3.19208C10.8365 2.60618 10.2782 1.74673 10.081 0.756136C10.0315 0.507061 10.0055 0.253897 10.0034 -3.05176e-05H7.39088V7.13848L7.38775 11.0486C7.38775 12.0939 6.70702 12.9803 5.76337 13.292C5.48072 13.3855 5.18302 13.425 4.88577 13.4085C4.49266 13.3869 4.12428 13.2683 3.8041 13.0767C3.12274 12.6692 2.66077 11.9299 2.64825 11.0843C2.62854 9.76253 3.69706 8.68493 5.01785 8.68493C5.27856 8.68493 5.52895 8.7275 5.76337 8.8048V6.15228C5.51612 6.11566 5.26448 6.09656 5.01002 6.09656C3.56436 6.09656 2.21227 6.69749 1.24578 7.7801C0.515276 8.59824 0.0771 9.64203 0.00949571 10.7365C-0.0790785 12.1744 0.447046 13.5412 1.46737 14.5496C1.61729 14.6976 1.77472 14.835 1.93935 14.9618C2.81414 15.635 3.8836 16 5.01002 16C5.26448 16 5.51612 15.9812 5.76337 15.9446C6.81562 15.7887 7.7865 15.307 8.55268 14.5496C9.49413 13.6191 10.0143 12.3838 10.0199 11.0689L10.0065 5.22991C10.4567 5.57716 10.9498 5.86477 11.4737 6.08561C12.2934 6.43146 13.1626 6.60673 14.0571 6.60641V4.00553C14.0577 4.00615 14.0502 4.00615 14.0496 4.00615Z" fill="#4A4A4A"/>
</svg>
