<svg width="403" height="345" viewBox="0 0 403 345" fill="none" xmlns="http://www.w3.org/2000/svg">
<path d="M179.38 30.8558C187.08 17.5374 206.307 17.5374 214.008 30.8558L377.436 313.5C385.146 326.834 375.524 343.512 360.122 343.512H33.2654C17.8636 343.512 8.24186 326.834 15.9513 313.5L179.38 30.8558Z" fill="#72BF44"/>
<path d="M173.114 207.112C173.234 207.112 173.294 207.212 173.294 207.412V241.612C173.294 241.772 173.214 241.872 173.054 241.912H161.474C161.314 241.912 161.234 241.812 161.234 241.612V217.612C161.234 216.012 161.074 214.752 160.754 213.832C160.474 212.872 160.114 212.192 159.674 211.792C159.274 211.392 159.074 211.172 159.074 211.132C158.914 210.852 158.954 210.612 159.194 210.412C159.434 210.212 159.854 210.052 160.454 209.932L173.114 207.112ZM198.939 224.092V229.372C198.939 229.492 198.859 229.552 198.699 229.552H180.819L180.519 229.312V224.152C180.559 223.952 180.679 223.852 180.879 223.852H198.699C198.859 223.892 198.939 223.972 198.939 224.092ZM234.529 228.532C234.689 228.532 234.789 228.612 234.829 228.772V237.292C234.829 237.452 234.729 237.532 234.529 237.532H230.989V241.732C230.989 241.892 230.909 241.992 230.749 242.032H219.589C219.589 242.032 219.509 241.972 219.349 241.852C219.349 241.812 219.349 241.772 219.349 241.732C219.349 240.612 219.329 239.212 219.289 237.532H205.369C205.209 237.532 205.109 237.452 205.069 237.292V229.192C205.069 229.112 205.089 229.052 205.129 229.012C207.009 227.332 208.789 225.492 210.469 223.492C212.189 221.492 213.589 219.732 214.669 218.212C215.749 216.652 216.709 215.112 217.549 213.592C218.429 212.072 219.029 210.972 219.349 210.292C219.709 209.572 219.949 209.052 220.069 208.732V208.672L220.309 208.552H230.749C230.909 208.552 230.989 208.652 230.989 208.852V224.512V228.532H234.529ZM219.409 228.472V220.972C216.489 224.932 214.589 227.432 213.709 228.472H219.409Z" fill="white"/>
<path d="M182.416 284.812C182.562 284.865 182.556 285.118 182.396 285.572C182.129 286.318 181.649 286.838 180.956 287.132C180.742 287.225 180.516 287.285 180.276 287.312C179.529 287.392 178.862 287.305 178.276 287.052C177.702 286.812 177.236 286.485 176.876 286.072C176.516 285.658 176.202 285.118 175.936 284.452C175.682 283.785 175.489 283.172 175.356 282.612C175.236 282.038 175.129 281.385 175.036 280.652C174.742 280.585 174.496 280.612 174.296 280.732L174.436 286.812C174.422 286.865 174.389 286.898 174.336 286.912H170.036C170.036 286.912 170.009 286.892 169.956 286.852C169.956 286.838 169.956 286.825 169.956 286.812C169.942 280.692 169.942 277.072 169.956 275.952C169.916 275.512 169.836 275.145 169.716 274.852C169.609 274.558 169.489 274.358 169.356 274.252C169.236 274.132 169.116 274.038 168.996 273.972C168.876 273.905 168.789 273.852 168.736 273.812C168.682 273.758 168.669 273.685 168.696 273.592C168.816 273.245 169.156 272.918 169.716 272.612C170.289 272.292 170.862 272.132 171.436 272.132C172.289 272.132 172.996 272.398 173.556 272.932C174.116 273.465 174.396 274.265 174.396 275.332L174.296 278.532C174.349 278.505 174.456 278.478 174.616 278.452C174.776 278.425 174.876 278.405 174.916 278.392C174.889 276.765 175.256 275.358 176.016 274.172C176.776 272.985 177.862 272.305 179.276 272.132C180.182 272.025 180.936 272.212 181.536 272.692C182.136 273.172 182.382 273.825 182.276 274.652C182.209 275.198 182.029 275.638 181.736 275.972C181.456 276.305 181.129 276.518 180.756 276.612C180.396 276.692 180.036 276.732 179.676 276.732C179.329 276.732 179.036 276.692 178.796 276.612C178.556 276.532 178.436 276.465 178.436 276.412C178.436 276.385 178.436 276.325 178.436 276.232C178.436 276.138 178.436 276.072 178.436 276.032C178.436 275.992 178.429 275.932 178.416 275.852C178.416 275.772 178.402 275.712 178.376 275.672C178.349 275.632 178.316 275.585 178.276 275.532C178.236 275.478 178.176 275.445 178.096 275.432C178.029 275.405 177.949 275.392 177.856 275.392C177.469 275.392 177.169 275.658 176.956 276.192C176.742 276.725 176.642 277.392 176.656 278.192C177.256 278.178 177.722 278.358 178.056 278.732C178.402 279.105 178.769 279.712 179.156 280.552C179.929 282.165 180.602 283.292 181.176 283.932C181.602 284.385 182.016 284.678 182.416 284.812ZM196.589 272.632C196.589 272.632 196.615 272.652 196.669 272.692C196.669 272.705 196.669 272.718 196.669 272.732L196.649 286.812C196.635 286.865 196.602 286.898 196.549 286.912H192.409C192.409 286.912 192.382 286.892 192.329 286.852C192.329 286.838 192.329 286.825 192.329 286.812V275.012H190.109C190.095 275.265 190.075 275.712 190.049 276.352C190.035 276.978 190.015 277.525 189.989 277.992C189.975 278.458 189.942 279.045 189.889 279.752C189.835 280.458 189.762 281.078 189.669 281.612C189.575 282.132 189.462 282.705 189.329 283.332C189.195 283.958 189.015 284.492 188.789 284.932C188.575 285.372 188.329 285.785 188.049 286.172C187.769 286.558 187.429 286.845 187.029 287.032C186.629 287.232 186.189 287.332 185.709 287.332C184.989 287.332 184.375 287.098 183.869 286.632C183.362 286.152 183.109 285.732 183.109 285.372C183.109 285.305 183.209 285.165 183.409 284.952C183.622 284.738 183.875 284.378 184.169 283.872C184.475 283.365 184.775 282.698 185.069 281.872C185.375 281.045 185.629 279.838 185.829 278.252C186.042 276.652 186.155 274.812 186.169 272.732V272.712C186.182 272.672 186.209 272.645 186.249 272.632C187.769 272.218 189.489 272.012 191.409 272.012C193.342 271.998 195.069 272.205 196.589 272.632ZM211.546 286.812C211.559 286.865 211.539 286.898 211.486 286.912H206.966C206.899 286.912 206.859 286.878 206.846 286.812L206.346 284.692H202.806L202.366 286.812C202.353 286.838 202.333 286.865 202.306 286.892C202.293 286.905 202.273 286.912 202.246 286.912H202.226H198.046C198.046 286.912 198.026 286.905 197.986 286.892C197.973 286.878 197.979 286.852 198.006 286.812C200.299 279.638 201.446 276.045 201.446 276.032C201.699 275.298 201.799 274.798 201.746 274.532C201.693 274.252 201.606 274.025 201.486 273.852C201.366 273.665 201.319 273.525 201.346 273.432C201.466 273.058 201.819 272.738 202.406 272.472C203.006 272.192 203.606 272.052 204.206 272.052C204.979 272.052 205.699 272.318 206.366 272.852C207.033 273.372 207.553 274.152 207.926 275.192C208.179 275.885 208.606 277.205 209.206 279.152C209.806 281.085 210.346 282.845 210.826 284.432L211.546 286.812ZM203.366 281.992H205.706L204.526 276.192C204.393 276.752 204.186 277.765 203.906 279.232C203.626 280.685 203.446 281.605 203.366 281.992ZM224.735 282.952C225.002 282.725 225.128 282.765 225.115 283.072C225.102 283.165 225.082 283.278 225.055 283.412C225.002 283.612 224.915 283.845 224.795 284.112C224.688 284.378 224.488 284.705 224.195 285.092C223.902 285.478 223.555 285.832 223.155 286.152C222.768 286.458 222.248 286.725 221.595 286.952C220.942 287.192 220.228 287.318 219.455 287.332C217.508 287.372 215.855 286.632 214.495 285.112C213.148 283.592 212.475 281.785 212.475 279.692C212.475 277.638 213.128 275.878 214.435 274.412C215.755 272.932 217.435 272.185 219.475 272.172C221.035 272.158 222.315 272.498 223.315 273.192C224.315 273.872 224.815 274.752 224.815 275.832C224.815 276.418 224.615 276.945 224.215 277.412C223.815 277.878 223.275 278.112 222.595 278.112C222.155 278.112 221.782 278.045 221.475 277.912C221.182 277.765 221.042 277.592 221.055 277.392C221.162 276.658 221.095 276.025 220.855 275.492C220.628 274.958 220.202 274.692 219.575 274.692C219.002 274.692 218.502 274.985 218.075 275.572C217.648 276.158 217.348 276.845 217.175 277.632C217.015 278.418 216.982 279.158 217.075 279.852C217.222 281.078 217.588 282.065 218.175 282.812C218.775 283.558 219.455 284.018 220.215 284.192C220.975 284.352 221.762 284.325 222.575 284.112C223.388 283.898 224.108 283.512 224.735 282.952Z" fill="white"/>
</svg>
