<svg width="403" height="345" viewBox="0 0 403 345" fill="none" xmlns="http://www.w3.org/2000/svg">
<path d="M179.38 30.8558C187.08 17.5374 206.307 17.5374 214.008 30.8558L377.436 313.5C385.146 326.834 375.524 343.512 360.122 343.512H33.2654C17.8636 343.512 8.24186 326.834 15.9513 313.5L179.38 30.8558Z" fill="#0095D4"/>
<path d="M151.467 207.112C151.587 207.112 151.647 207.212 151.647 207.412V241.612C151.647 241.772 151.567 241.872 151.407 241.912H139.827C139.667 241.912 139.587 241.812 139.587 241.612V217.612C139.587 216.012 139.427 214.752 139.107 213.832C138.827 212.872 138.467 212.192 138.027 211.792C137.627 211.392 137.427 211.172 137.427 211.132C137.267 210.852 137.307 210.612 137.547 210.412C137.787 210.212 138.207 210.052 138.807 209.932L151.467 207.112ZM189.112 225.232C189.112 227.552 188.772 229.772 188.092 231.892C187.452 233.972 186.512 235.892 185.272 237.652C184.032 239.372 182.372 240.752 180.292 241.792C178.252 242.792 175.952 243.292 173.392 243.292C170.072 243.292 167.192 242.412 164.752 240.652C162.352 238.852 160.592 236.612 159.472 233.932C158.352 231.252 157.792 228.352 157.792 225.232C157.792 220.392 159.172 216.192 161.932 212.632C164.692 209.032 168.512 207.232 173.392 207.232C176.672 207.232 179.532 208.132 181.972 209.932C184.452 211.692 186.252 213.912 187.372 216.592C188.532 219.272 189.112 222.152 189.112 225.232ZM173.392 213.472C170.832 213.472 169.552 217.392 169.552 225.232C169.552 233.072 170.832 236.992 173.392 236.992C174.272 236.992 174.992 236.652 175.552 235.972C176.112 235.292 176.512 234.312 176.752 233.032C176.992 231.712 177.152 230.492 177.232 229.372C177.312 228.212 177.352 226.832 177.352 225.232C177.352 217.392 176.032 213.472 173.392 213.472ZM213.822 224.092V229.372C213.822 229.492 213.742 229.552 213.582 229.552H195.702L195.402 229.312V224.152C195.442 223.952 195.562 223.852 195.762 223.852H213.582C213.742 223.892 213.822 223.972 213.822 224.092ZM233.751 207.112C233.871 207.112 233.931 207.212 233.931 207.412V241.612C233.931 241.772 233.851 241.872 233.691 241.912H222.111C221.951 241.912 221.871 241.812 221.871 241.612V217.612C221.871 216.012 221.711 214.752 221.391 213.832C221.111 212.872 220.751 212.192 220.311 211.792C219.911 211.392 219.711 211.172 219.711 211.132C219.551 210.852 219.591 210.612 219.831 210.412C220.071 210.212 220.491 210.052 221.091 209.932L233.751 207.112ZM254.988 207.112C255.108 207.112 255.168 207.212 255.168 207.412V241.612C255.168 241.772 255.088 241.872 254.928 241.912H243.348C243.188 241.912 243.108 241.812 243.108 241.612V217.612C243.108 216.012 242.948 214.752 242.628 213.832C242.348 212.872 241.988 212.192 241.548 211.792C241.148 211.392 240.948 211.172 240.948 211.132C240.788 210.852 240.828 210.612 241.068 210.412C241.308 210.212 241.728 210.052 242.328 209.932L254.988 207.112Z" fill="white"/>
<path d="M182.416 284.812C182.562 284.865 182.556 285.118 182.396 285.572C182.129 286.318 181.649 286.838 180.956 287.132C180.742 287.225 180.516 287.285 180.276 287.312C179.529 287.392 178.862 287.305 178.276 287.052C177.702 286.812 177.236 286.485 176.876 286.072C176.516 285.658 176.202 285.118 175.936 284.452C175.682 283.785 175.489 283.172 175.356 282.612C175.236 282.038 175.129 281.385 175.036 280.652C174.742 280.585 174.496 280.612 174.296 280.732L174.436 286.812C174.422 286.865 174.389 286.898 174.336 286.912H170.036C170.036 286.912 170.009 286.892 169.956 286.852C169.956 286.838 169.956 286.825 169.956 286.812C169.942 280.692 169.942 277.072 169.956 275.952C169.916 275.512 169.836 275.145 169.716 274.852C169.609 274.558 169.489 274.358 169.356 274.252C169.236 274.132 169.116 274.038 168.996 273.972C168.876 273.905 168.789 273.852 168.736 273.812C168.682 273.758 168.669 273.685 168.696 273.592C168.816 273.245 169.156 272.918 169.716 272.612C170.289 272.292 170.862 272.132 171.436 272.132C172.289 272.132 172.996 272.398 173.556 272.932C174.116 273.465 174.396 274.265 174.396 275.332L174.296 278.532C174.349 278.505 174.456 278.478 174.616 278.452C174.776 278.425 174.876 278.405 174.916 278.392C174.889 276.765 175.256 275.358 176.016 274.172C176.776 272.985 177.862 272.305 179.276 272.132C180.182 272.025 180.936 272.212 181.536 272.692C182.136 273.172 182.382 273.825 182.276 274.652C182.209 275.198 182.029 275.638 181.736 275.972C181.456 276.305 181.129 276.518 180.756 276.612C180.396 276.692 180.036 276.732 179.676 276.732C179.329 276.732 179.036 276.692 178.796 276.612C178.556 276.532 178.436 276.465 178.436 276.412C178.436 276.385 178.436 276.325 178.436 276.232C178.436 276.138 178.436 276.072 178.436 276.032C178.436 275.992 178.429 275.932 178.416 275.852C178.416 275.772 178.402 275.712 178.376 275.672C178.349 275.632 178.316 275.585 178.276 275.532C178.236 275.478 178.176 275.445 178.096 275.432C178.029 275.405 177.949 275.392 177.856 275.392C177.469 275.392 177.169 275.658 176.956 276.192C176.742 276.725 176.642 277.392 176.656 278.192C177.256 278.178 177.722 278.358 178.056 278.732C178.402 279.105 178.769 279.712 179.156 280.552C179.929 282.165 180.602 283.292 181.176 283.932C181.602 284.385 182.016 284.678 182.416 284.812ZM196.589 272.632C196.589 272.632 196.615 272.652 196.669 272.692C196.669 272.705 196.669 272.718 196.669 272.732L196.649 286.812C196.635 286.865 196.602 286.898 196.549 286.912H192.409C192.409 286.912 192.382 286.892 192.329 286.852C192.329 286.838 192.329 286.825 192.329 286.812V275.012H190.109C190.095 275.265 190.075 275.712 190.049 276.352C190.035 276.978 190.015 277.525 189.989 277.992C189.975 278.458 189.942 279.045 189.889 279.752C189.835 280.458 189.762 281.078 189.669 281.612C189.575 282.132 189.462 282.705 189.329 283.332C189.195 283.958 189.015 284.492 188.789 284.932C188.575 285.372 188.329 285.785 188.049 286.172C187.769 286.558 187.429 286.845 187.029 287.032C186.629 287.232 186.189 287.332 185.709 287.332C184.989 287.332 184.375 287.098 183.869 286.632C183.362 286.152 183.109 285.732 183.109 285.372C183.109 285.305 183.209 285.165 183.409 284.952C183.622 284.738 183.875 284.378 184.169 283.872C184.475 283.365 184.775 282.698 185.069 281.872C185.375 281.045 185.629 279.838 185.829 278.252C186.042 276.652 186.155 274.812 186.169 272.732V272.712C186.182 272.672 186.209 272.645 186.249 272.632C187.769 272.218 189.489 272.012 191.409 272.012C193.342 271.998 195.069 272.205 196.589 272.632ZM211.546 286.812C211.559 286.865 211.539 286.898 211.486 286.912H206.966C206.899 286.912 206.859 286.878 206.846 286.812L206.346 284.692H202.806L202.366 286.812C202.353 286.838 202.333 286.865 202.306 286.892C202.293 286.905 202.273 286.912 202.246 286.912H202.226H198.046C198.046 286.912 198.026 286.905 197.986 286.892C197.973 286.878 197.979 286.852 198.006 286.812C200.299 279.638 201.446 276.045 201.446 276.032C201.699 275.298 201.799 274.798 201.746 274.532C201.693 274.252 201.606 274.025 201.486 273.852C201.366 273.665 201.319 273.525 201.346 273.432C201.466 273.058 201.819 272.738 202.406 272.472C203.006 272.192 203.606 272.052 204.206 272.052C204.979 272.052 205.699 272.318 206.366 272.852C207.033 273.372 207.553 274.152 207.926 275.192C208.179 275.885 208.606 277.205 209.206 279.152C209.806 281.085 210.346 282.845 210.826 284.432L211.546 286.812ZM203.366 281.992H205.706L204.526 276.192C204.393 276.752 204.186 277.765 203.906 279.232C203.626 280.685 203.446 281.605 203.366 281.992ZM224.735 282.952C225.002 282.725 225.128 282.765 225.115 283.072C225.102 283.165 225.082 283.278 225.055 283.412C225.002 283.612 224.915 283.845 224.795 284.112C224.688 284.378 224.488 284.705 224.195 285.092C223.902 285.478 223.555 285.832 223.155 286.152C222.768 286.458 222.248 286.725 221.595 286.952C220.942 287.192 220.228 287.318 219.455 287.332C217.508 287.372 215.855 286.632 214.495 285.112C213.148 283.592 212.475 281.785 212.475 279.692C212.475 277.638 213.128 275.878 214.435 274.412C215.755 272.932 217.435 272.185 219.475 272.172C221.035 272.158 222.315 272.498 223.315 273.192C224.315 273.872 224.815 274.752 224.815 275.832C224.815 276.418 224.615 276.945 224.215 277.412C223.815 277.878 223.275 278.112 222.595 278.112C222.155 278.112 221.782 278.045 221.475 277.912C221.182 277.765 221.042 277.592 221.055 277.392C221.162 276.658 221.095 276.025 220.855 275.492C220.628 274.958 220.202 274.692 219.575 274.692C219.002 274.692 218.502 274.985 218.075 275.572C217.648 276.158 217.348 276.845 217.175 277.632C217.015 278.418 216.982 279.158 217.075 279.852C217.222 281.078 217.588 282.065 218.175 282.812C218.775 283.558 219.455 284.018 220.215 284.192C220.975 284.352 221.762 284.325 222.575 284.112C223.388 283.898 224.108 283.512 224.735 282.952Z" fill="white"/>
</svg>
