<svg width="403" height="345" viewBox="0 0 403 345" fill="none" xmlns="http://www.w3.org/2000/svg">
<path d="M179.38 30.8558C187.08 17.5374 206.307 17.5374 214.008 30.8558L377.436 313.5C385.146 326.834 375.524 343.512 360.122 343.512H33.2654C17.8636 343.512 8.24186 326.834 15.9513 313.5L179.38 30.8558Z" fill="#FFCC40"/>
<path d="M161.451 221.692C167.171 220.612 171.931 221.052 175.731 223.012C179.531 224.972 181.431 228.072 181.431 232.312C181.431 234.312 180.971 236.052 180.051 237.532C179.171 239.012 177.991 240.152 176.511 240.952C175.031 241.752 173.471 242.332 171.831 242.692C170.191 243.092 168.491 243.292 166.731 243.292C165.371 243.292 163.971 243.152 162.531 242.872C161.091 242.632 159.611 242.252 158.091 241.732C156.611 241.172 155.391 240.352 154.431 239.272C153.471 238.152 152.991 236.872 152.991 235.432C152.991 233.832 153.511 232.512 154.551 231.472C155.591 230.392 156.951 229.852 158.631 229.852C159.591 229.852 160.531 229.992 161.451 230.272C162.371 230.512 162.891 230.752 163.011 230.992C163.131 231.192 163.191 231.412 163.191 231.652C163.231 231.852 163.231 232.192 163.191 232.672C163.151 233.112 163.131 233.472 163.131 233.752C163.131 234.872 163.411 235.712 163.971 236.272C164.571 236.832 165.351 237.112 166.311 237.112C167.271 237.112 168.071 236.712 168.711 235.912C169.391 235.072 169.731 234.092 169.731 232.972C169.731 231.852 169.531 230.932 169.131 230.212C168.771 229.492 168.051 228.852 166.971 228.292C165.891 227.692 164.391 227.372 162.471 227.332C160.591 227.252 158.151 227.332 155.151 227.572H154.791C154.631 227.572 154.551 227.472 154.551 227.272V224.392V217.612V215.272V208.852C154.551 208.692 154.651 208.612 154.851 208.612H179.871C180.031 208.612 180.111 208.672 180.111 208.792V217.612C180.111 217.772 180.031 217.852 179.871 217.852H161.451V221.692ZM205.853 224.092V229.372C205.853 229.492 205.773 229.552 205.613 229.552H187.733L187.433 229.312V224.152C187.473 223.952 187.593 223.852 187.793 223.852H205.613C205.773 223.892 205.853 223.972 205.853 224.092ZM225.483 207.232C230.363 207.232 234.163 208.952 236.883 212.392C239.643 215.792 241.023 220.132 241.023 225.412C241.023 231.012 239.643 235.392 236.883 238.552C234.163 241.712 230.363 243.292 225.483 243.292C222.163 243.292 219.343 242.592 217.023 241.192C214.703 239.792 213.483 238.052 213.363 235.972C213.283 234.412 213.723 233.032 214.683 231.832C215.683 230.632 217.043 230.032 218.763 230.032C219.683 229.992 220.583 230.112 221.463 230.392C222.343 230.632 222.863 230.852 223.023 231.052C223.103 231.212 223.143 231.412 223.143 231.652C223.183 231.852 223.183 232.152 223.143 232.552C223.103 232.952 223.083 233.272 223.083 233.512C223.083 235.912 223.963 237.112 225.723 237.112C228.043 237.112 229.203 234.152 229.203 228.232C225.683 229.432 222.643 229.692 220.083 229.012C217.523 228.292 215.523 227.032 214.083 225.232C212.683 223.392 211.983 221.332 211.983 219.052C211.983 217.172 212.303 215.492 212.943 214.012C213.583 212.532 214.383 211.392 215.343 210.592C216.303 209.752 217.423 209.072 218.703 208.552C219.983 208.032 221.163 207.692 222.243 207.532C223.323 207.332 224.403 207.232 225.483 207.232ZM229.143 222.772C229.263 220.092 229.043 218.012 228.483 216.532C227.923 215.012 226.903 214.272 225.423 214.312C224.223 214.352 223.383 214.952 222.903 216.112C222.463 217.232 222.283 218.292 222.363 219.292C222.563 222.772 224.823 223.932 229.143 222.772Z" fill="white"/>
<path d="M182.416 284.812C182.562 284.865 182.556 285.118 182.396 285.572C182.129 286.318 181.649 286.838 180.956 287.132C180.742 287.225 180.516 287.285 180.276 287.312C179.529 287.392 178.862 287.305 178.276 287.052C177.702 286.812 177.236 286.485 176.876 286.072C176.516 285.658 176.202 285.118 175.936 284.452C175.682 283.785 175.489 283.172 175.356 282.612C175.236 282.038 175.129 281.385 175.036 280.652C174.742 280.585 174.496 280.612 174.296 280.732L174.436 286.812C174.422 286.865 174.389 286.898 174.336 286.912H170.036C170.036 286.912 170.009 286.892 169.956 286.852C169.956 286.838 169.956 286.825 169.956 286.812C169.942 280.692 169.942 277.072 169.956 275.952C169.916 275.512 169.836 275.145 169.716 274.852C169.609 274.558 169.489 274.358 169.356 274.252C169.236 274.132 169.116 274.038 168.996 273.972C168.876 273.905 168.789 273.852 168.736 273.812C168.682 273.758 168.669 273.685 168.696 273.592C168.816 273.245 169.156 272.918 169.716 272.612C170.289 272.292 170.862 272.132 171.436 272.132C172.289 272.132 172.996 272.398 173.556 272.932C174.116 273.465 174.396 274.265 174.396 275.332L174.296 278.532C174.349 278.505 174.456 278.478 174.616 278.452C174.776 278.425 174.876 278.405 174.916 278.392C174.889 276.765 175.256 275.358 176.016 274.172C176.776 272.985 177.862 272.305 179.276 272.132C180.182 272.025 180.936 272.212 181.536 272.692C182.136 273.172 182.382 273.825 182.276 274.652C182.209 275.198 182.029 275.638 181.736 275.972C181.456 276.305 181.129 276.518 180.756 276.612C180.396 276.692 180.036 276.732 179.676 276.732C179.329 276.732 179.036 276.692 178.796 276.612C178.556 276.532 178.436 276.465 178.436 276.412C178.436 276.385 178.436 276.325 178.436 276.232C178.436 276.138 178.436 276.072 178.436 276.032C178.436 275.992 178.429 275.932 178.416 275.852C178.416 275.772 178.402 275.712 178.376 275.672C178.349 275.632 178.316 275.585 178.276 275.532C178.236 275.478 178.176 275.445 178.096 275.432C178.029 275.405 177.949 275.392 177.856 275.392C177.469 275.392 177.169 275.658 176.956 276.192C176.742 276.725 176.642 277.392 176.656 278.192C177.256 278.178 177.722 278.358 178.056 278.732C178.402 279.105 178.769 279.712 179.156 280.552C179.929 282.165 180.602 283.292 181.176 283.932C181.602 284.385 182.016 284.678 182.416 284.812ZM196.589 272.632C196.589 272.632 196.615 272.652 196.669 272.692C196.669 272.705 196.669 272.718 196.669 272.732L196.649 286.812C196.635 286.865 196.602 286.898 196.549 286.912H192.409C192.409 286.912 192.382 286.892 192.329 286.852C192.329 286.838 192.329 286.825 192.329 286.812V275.012H190.109C190.095 275.265 190.075 275.712 190.049 276.352C190.035 276.978 190.015 277.525 189.989 277.992C189.975 278.458 189.942 279.045 189.889 279.752C189.835 280.458 189.762 281.078 189.669 281.612C189.575 282.132 189.462 282.705 189.329 283.332C189.195 283.958 189.015 284.492 188.789 284.932C188.575 285.372 188.329 285.785 188.049 286.172C187.769 286.558 187.429 286.845 187.029 287.032C186.629 287.232 186.189 287.332 185.709 287.332C184.989 287.332 184.375 287.098 183.869 286.632C183.362 286.152 183.109 285.732 183.109 285.372C183.109 285.305 183.209 285.165 183.409 284.952C183.622 284.738 183.875 284.378 184.169 283.872C184.475 283.365 184.775 282.698 185.069 281.872C185.375 281.045 185.629 279.838 185.829 278.252C186.042 276.652 186.155 274.812 186.169 272.732V272.712C186.182 272.672 186.209 272.645 186.249 272.632C187.769 272.218 189.489 272.012 191.409 272.012C193.342 271.998 195.069 272.205 196.589 272.632ZM211.546 286.812C211.559 286.865 211.539 286.898 211.486 286.912H206.966C206.899 286.912 206.859 286.878 206.846 286.812L206.346 284.692H202.806L202.366 286.812C202.353 286.838 202.333 286.865 202.306 286.892C202.293 286.905 202.273 286.912 202.246 286.912H202.226H198.046C198.046 286.912 198.026 286.905 197.986 286.892C197.973 286.878 197.979 286.852 198.006 286.812C200.299 279.638 201.446 276.045 201.446 276.032C201.699 275.298 201.799 274.798 201.746 274.532C201.693 274.252 201.606 274.025 201.486 273.852C201.366 273.665 201.319 273.525 201.346 273.432C201.466 273.058 201.819 272.738 202.406 272.472C203.006 272.192 203.606 272.052 204.206 272.052C204.979 272.052 205.699 272.318 206.366 272.852C207.033 273.372 207.553 274.152 207.926 275.192C208.179 275.885 208.606 277.205 209.206 279.152C209.806 281.085 210.346 282.845 210.826 284.432L211.546 286.812ZM203.366 281.992H205.706L204.526 276.192C204.393 276.752 204.186 277.765 203.906 279.232C203.626 280.685 203.446 281.605 203.366 281.992ZM224.735 282.952C225.002 282.725 225.128 282.765 225.115 283.072C225.102 283.165 225.082 283.278 225.055 283.412C225.002 283.612 224.915 283.845 224.795 284.112C224.688 284.378 224.488 284.705 224.195 285.092C223.902 285.478 223.555 285.832 223.155 286.152C222.768 286.458 222.248 286.725 221.595 286.952C220.942 287.192 220.228 287.318 219.455 287.332C217.508 287.372 215.855 286.632 214.495 285.112C213.148 283.592 212.475 281.785 212.475 279.692C212.475 277.638 213.128 275.878 214.435 274.412C215.755 272.932 217.435 272.185 219.475 272.172C221.035 272.158 222.315 272.498 223.315 273.192C224.315 273.872 224.815 274.752 224.815 275.832C224.815 276.418 224.615 276.945 224.215 277.412C223.815 277.878 223.275 278.112 222.595 278.112C222.155 278.112 221.782 278.045 221.475 277.912C221.182 277.765 221.042 277.592 221.055 277.392C221.162 276.658 221.095 276.025 220.855 275.492C220.628 274.958 220.202 274.692 219.575 274.692C219.002 274.692 218.502 274.985 218.075 275.572C217.648 276.158 217.348 276.845 217.175 277.632C217.015 278.418 216.982 279.158 217.075 279.852C217.222 281.078 217.588 282.065 218.175 282.812C218.775 283.558 219.455 284.018 220.215 284.192C220.975 284.352 221.762 284.325 222.575 284.112C223.388 283.898 224.108 283.512 224.735 282.952Z" fill="white"/>
</svg>
